<svg xmlns="http://www.w3.org/2000/svg" enable-background="new 0 0 8100 5000" viewBox="893.68 1153.85 6312.63 2990.52"><path fill="#6d87d0" d="M3533.704,3477.611c451.906-34.08,972.298,70.568,1809.28,112.245    c677.808,33.751,1382.165,104.413,1751.964-582.03c511.473-949.423-873.441-970.009-1427.874-1464.275    c-470.761-419.675-1159.647-429.676-1668.271-352.274c-554.961,84.453-947.564,499.28-1505.604,445.572    c-888.653-85.527-1092.694,36.487-1362.458,501.277c-202.831,349.472-182.599,800.773,23.653,1161.774    C1517.183,3934.893,2938.908,3522.467,3533.704,3477.611z"/><path fill="#efefef" d="M6224.684,1615.5c0,198.721-161.133,359.778-359.777,359.778      c-100.841,0-191.963-41.46-257.191-108.283c-63.48-64.848-102.588-153.54-102.588-251.495      c0-198.646,161.058-359.703,359.779-359.703c58.394,0,113.522,13.896,162.271,38.575      C6144.346,1353.752,6224.684,1475.248,6224.684,1615.5z"/><path d="M5828.25,1489.161c-0.125,18.783-5.949,38.23-19.035,53.264c-12.722,15.333-33.252,23.885-53.263,23.214        c-40.9-2.032-73.045-37.313-74.866-76.478c-1.207-19.601,6.19-40.056,20.332-54.532        c13.887-14.647,34.121-23.557,54.534-23.108c20.349-0.141,40.597,9.019,53.386,24.254        C5822.355,1450.91,5828.258,1470.354,5828.25,1489.161z M5827.103,1489.161c0.118-18.81-9.423-36.68-23.104-48.047        c-13.712-11.464-30.778-17.747-48.047-17.762c-17.206,0.322-34.284,6.856-46.903,18.907        c-12.557,12.026-20.6,28.885-21.682,46.901c-1.059,17.918,5.793,36.805,19.271,49.313        c13.135,12.972,31.926,18.503,49.313,17.66c17.606-0.545,34.39-7.437,48.171-18.801        C5817.735,1525.863,5827.354,1507.997,5827.103,1489.161z" opacity=".75"/><path fill="#fff" d="M5680.885 1480.755c1.495-21.296 10.81-42.82 27.654-57.142 8.708-6.699 19.244-11.182 30.099-12.238 5.358-1.201 10.833-.464 16.226-.568 5.365.612 10.629 1.944 15.878 2.873-10.685-.935-21.347-1.759-31.714.189-10.437 1.425-20.186 6.125-28.127 12.708-8.259 6.269-14.828 14.756-19.633 24.133C5686.647 1460.17 5683.004 1470.257 5680.885 1480.755zM5823.267 1465.658c4.599 20.848 1.762 44.129-10.339 62.635-6.453 8.891-15.287 16.175-25.398 20.262-4.799 2.67-10.258 3.514-15.4 5.14-5.318.933-10.744 1.146-16.04 1.742 10.511-2.128 20.97-4.359 30.36-9.164 9.605-4.322 17.626-11.591 23.377-20.154 6.145-8.351 10.04-18.352 11.993-28.706C5823.57 1487.033 5824.207 1476.328 5823.267 1465.658z" opacity=".28"/><path d="M5738.303,1733.38c0.729,12.885-10.233,27.332-24.977,26.419c-14.09-0.636-25.41-12.836-25.861-26.419        c-1.127-13.781,11.375-27.425,25.861-26.82C5728.145,1706.184,5739.021,1720.466,5738.303,1733.38z M5737.906,1733.38        c-0.019-13.571-12.91-23.058-24.58-22.733c-11.996-0.097-23.264,10.029-23.691,22.733        c-1.15,12.903,11.297,24.473,23.691,23.135C5725.07,1756.304,5737.879,1746.98,5737.906,1733.38z" opacity=".75"/><path fill="#fff" d="M5690.152 1736.146c.854-7.27 3.695-14.748 9.554-19.739 6.139-4.805 14.415-5.067 21.486-3.432-7.192-1.228-15.212-.384-20.672 4.455C5694.736 1721.767 5691.418 1728.937 5690.152 1736.146zM5736.58 1725.261c1.24 7.213.634 15.19-3.571 21.636-4.526 6.347-12.39 8.943-19.634 9.377 7.244-.86 14.697-3.941 18.563-10.127C5736.258 1740.35 5737.408 1732.534 5736.58 1725.261z" opacity=".28"/><g><path d="M6061.806,1426.487c0.729,12.885-10.233,27.332-24.976,26.418c-14.09-0.636-25.41-12.835-25.861-26.418        c-1.129-13.781,11.374-27.425,25.861-26.821C6051.647,1399.291,6062.524,1413.573,6061.806,1426.487z M6061.41,1426.487        c-0.02-13.572-12.911-23.059-24.58-22.733c-11.997-0.097-23.264,10.029-23.691,22.733        c-1.152,12.902,11.297,24.472,23.691,23.135C6048.574,1449.41,6061.381,1440.087,6061.41,1426.487z" opacity=".75"/><path fill="#fff" d="M6013.656 1429.252c.854-7.269 3.695-14.748 9.553-19.739 6.139-4.805 14.414-5.067 21.486-3.432-7.193-1.227-15.212-.383-20.672 4.455C6018.24 1414.873 6014.922 1422.043 6013.656 1429.252zM6060.084 1418.368c1.24 7.213.634 15.189-3.572 21.636-4.525 6.347-12.39 8.943-19.634 9.377 7.245-.86 14.698-3.941 18.563-10.127C6059.76 1433.457 6060.912 1425.641 6060.084 1418.368z" opacity=".28"/></g><g><path d="M6139.49,1650.688c0.729,12.885-10.233,27.331-24.977,26.418c-14.09-0.636-25.41-12.835-25.859-26.418        c-1.129-13.781,11.373-27.425,25.859-26.82C6129.332,1623.492,6140.209,1637.774,6139.49,1650.688z M6139.094,1650.688        c-0.018-13.572-12.91-23.059-24.58-22.733c-11.996-0.097-23.264,10.029-23.69,22.733        c-1.151,12.902,11.296,24.472,23.69,23.135C6126.258,1673.612,6139.066,1664.289,6139.094,1650.688z" opacity=".75"/><path fill="#fff" d="M6091.34 1653.454c.854-7.27 3.695-14.748 9.554-19.739 6.14-4.805 14.415-5.067 21.487-3.432-7.193-1.228-15.213-.384-20.673 4.455C6095.924 1639.075 6092.605 1646.245 6091.34 1653.454zM6137.77 1642.569c1.238 7.214.633 15.19-3.572 21.637-4.527 6.347-12.39 8.942-19.635 9.377 7.246-.86 14.697-3.94 18.563-10.127C6137.445 1657.658 6138.596 1649.842 6137.77 1642.569z" opacity=".28"/></g><path d="M6224.684,1615.5c0,198.721-161.133,359.778-359.777,359.778      c-100.841,0-191.963-41.46-257.191-108.283c196.064-6.91,404.049-104.866,435.182-270.631      c20.807-111.017-1.67-239.27-15.719-301.992C6144.346,1353.752,6224.684,1475.248,6224.684,1615.5z" opacity=".46"/><path d="M6224.684,1615.5c0,198.721-161.133,359.778-359.777,359.778      c-56.723,0-110.408-13.137-158.172-36.525c33.715,9.112,69.252,14.048,106.08,14.048c212.77,0,385.293-164.17,385.293-366.688      c0-89.831-33.867-172.068-90.211-235.777C6179.655,1416.019,6224.684,1510.558,6224.684,1615.5z" opacity=".34"/><g><path fill="#d3d3e0" d="M4622.184 2891.326c165.548-34.205 332.922-58.85 500.574-80.42 83.943-9.982 168.144-17.724 252.41-24.302 84.278-6.604 168.787-10.021 253.284-10.89-84.438 3.446-168.755 8.396-252.94 15.251-84.142 7.299-168.184 15.81-251.971 26.46-83.884 9.802-167.629 20.896-251.179 33.352C4788.861 2863.537 4705.412 2876.719 4622.184 2891.326zM5976.057 2659.005c165.547-34.205 332.922-58.851 500.573-80.421 83.944-9.981 168.144-17.723 252.411-24.301 84.277-6.605 168.787-10.021 253.283-10.89-84.438 3.446-168.755 8.396-252.939 15.251-84.143 7.299-168.184 15.809-251.972 26.459-83.884 9.803-167.629 20.896-251.179 33.353C6142.734 2631.217 6059.284 2644.398 5976.057 2659.005zM4336.714 2287.517c165.549-34.206 332.922-58.85 500.573-80.42 83.945-9.982 168.145-17.723 252.411-24.302 84.278-6.604 168.788-10.021 253.284-10.889-84.438 3.446-168.755 8.396-252.939 15.251-84.143 7.298-168.184 15.809-251.971 26.459-83.885 9.803-167.631 20.896-251.18 33.353C4503.394 2259.728 4419.942 2272.909 4336.714 2287.517zM2349.204 3261.524c165.548-34.205 332.922-58.851 500.574-80.42 83.944-9.982 168.144-17.724 252.411-24.302 84.278-6.604 168.788-10.021 253.284-10.89-84.439 3.446-168.755 8.396-252.94 15.251-84.142 7.299-168.183 15.809-251.971 26.459-83.884 9.803-167.629 20.896-251.179 33.353C2515.882 3233.736 2432.433 3246.918 2349.204 3261.524zM4309.834 1747.59c162.633-46.119 327.778-82.835 493.425-116.505 83.001-16.042 166.416-29.869 249.985-42.541 83.576-12.697 167.615-22.233 251.827-29.226-83.967 9.56-167.702 20.611-251.169 33.552-83.391 13.38-166.595 27.962-249.388 44.66-82.954 15.859-165.675 32.997-248.101 51.477C4474.059 1707.789 4391.785 1726.986 4309.834 1747.59zM1557.842 2555.244c162.633-46.119 327.779-82.835 493.426-116.505 82.999-16.042 166.416-29.869 249.984-42.541 83.578-12.698 167.616-22.233 251.827-29.226-83.966 9.56-167.701 20.611-251.168 33.552-83.392 13.38-166.595 27.962-249.389 44.66-82.954 15.858-165.673 32.996-248.1 51.477C1722.068 2515.443 1639.794 2534.641 1557.842 2555.244z"/></g><g><path fill="#5d80ce" d="M2369.008,2053.9c2.106,67.748-53.706,122.86-121.105,122.86h-808.769        c-64.59,0-118.296-51.603-118.647-115.839v-1.406c0-94.776,76.524-171.302,170.951-171.302c8.775,0,16.849,0.703,24.924,1.757        c26.678-91.969,111.626-159.72,212.372-159.72c63.888,0,121.105,27.381,161.472,70.557        c24.573-13.339,52.303-21.061,82.142-21.061c76.875,0,141.815,50.548,163.579,120.403        c24.924-9.828,53.005-14.042,82.142-10.531c51.6,5.616,95.83,34.752,123.211,76.173        c15.445,23.518,25.273,51.251,27.379,81.087C2369.008,2049.337,2369.008,2051.443,2369.008,2053.9z"/><path d="M2369.008,2053.9c2.106,67.748-53.706,122.86-121.105,122.86h-808.769        c0,0,491.44-54.409,570.07-159.718c79.333-105.309-119-216.235-119-216.235c24.573-13.339,52.303-21.061,82.142-21.061        c76.875,0,141.815,50.548,163.579,120.403c24.924-9.828,53.005-14.042,82.142-10.531c51.6,5.616,95.83,34.752,123.211,76.173        c15.445,23.518,25.273,51.251,27.379,81.087C2369.008,2049.337,2369.008,2051.443,2369.008,2053.9z" opacity=".07"/><path d="M2247.769,2176.723h-341.884c92.41-11.818,184.92-17.181,276.586-34.213        c71.406-13.258,123.495-48.614,155.672-114.955c5.462-11.272,7.002-38.285,3.029-61.822        c15.642,23.686,25.523,51.444,27.609,81.089c0.199,2.383,0.298,4.767,0.397,7.15        C2371.265,2121.505,2315.302,2176.723,2247.769,2176.723z" opacity=".09"/><g><path fill="#5d80ce" d="M1691.599,2111.99c1.603,51.556-40.87,93.495-92.16,93.495H983.974        c-49.152,0-90.022-39.269-90.29-88.152v-1.07c0-72.124,58.234-130.359,130.092-130.359c6.678,0,12.822,0.535,18.967,1.337        c20.302-69.988,84.947-121.545,161.613-121.545c48.618,0,92.16,20.837,122.878,53.693        c18.7-10.151,39.802-16.027,62.509-16.027c58.501,0,107.919,38.467,124.481,91.625c18.967-7.479,40.336-10.686,62.509-8.014        c39.267,4.273,72.926,26.446,93.763,57.967c11.753,17.897,19.232,39.001,20.835,61.707        C1691.599,2108.517,1691.599,2110.12,1691.599,2111.99z"/><path d="M1691.599,2111.99c1.603,51.556-40.87,93.495-92.16,93.495H983.974        c0,0,373.981-41.405,433.817-121.544c60.372-80.138-90.557-164.552-90.557-164.552c18.7-10.151,39.802-16.027,62.509-16.027        c58.501,0,107.919,38.467,124.481,91.625c18.967-7.479,40.336-10.686,62.509-8.014c39.267,4.273,72.926,26.446,93.763,57.967        c11.753,17.897,19.232,39.001,20.835,61.707C1691.599,2108.517,1691.599,2110.12,1691.599,2111.99z" opacity=".07"/><path d="M1599.337,2205.457h-260.17c70.324-8.994,140.723-13.075,210.479-26.036        c54.339-10.09,93.979-36.995,118.465-87.479c4.157-8.578,5.329-29.134,2.306-47.046c11.903,18.024,19.423,39.148,21.01,61.708        c0.151,1.813,0.227,3.627,0.302,5.441C1693.316,2163.437,1650.729,2205.457,1599.337,2205.457z" opacity=".09"/></g><g><path fill="#5d80ce" d="M3643.433,1510.161c2.106,67.749-53.706,122.86-121.105,122.86h-808.769        c-64.59,0-118.296-51.602-118.648-115.839v-1.405c0-94.776,76.524-171.302,170.951-171.302c8.776,0,16.849,0.703,24.924,1.757        c26.679-91.969,111.627-159.72,212.372-159.72c63.887,0,121.105,27.381,161.472,70.557        c24.572-13.339,52.303-21.061,82.142-21.061c76.875,0,141.815,50.548,163.578,120.402        c24.924-9.828,53.006-14.042,82.142-10.53c51.6,5.615,95.831,34.751,123.211,76.172        c15.445,23.518,25.273,51.251,27.379,81.087C3643.433,1505.597,3643.433,1507.703,3643.433,1510.161z"/><path d="M3643.433,1510.161c2.106,67.749-53.706,122.86-121.105,122.86h-808.769        c0,0,491.44-54.409,570.07-159.717c79.333-105.309-118.999-216.235-118.999-216.235        c24.572-13.339,52.303-21.061,82.142-21.061c76.875,0,141.815,50.548,163.578,120.402        c24.924-9.828,53.006-14.042,82.142-10.53c51.6,5.615,95.831,34.751,123.211,76.172        c15.445,23.518,25.273,51.251,27.379,81.087C3643.433,1505.597,3643.433,1507.703,3643.433,1510.161z" opacity=".07"/><path d="M3522.193,1632.983H3180.31c92.411-11.818,184.92-17.181,276.586-34.213        c71.406-13.258,123.496-48.614,155.673-114.955c5.462-11.272,7.001-38.285,3.029-61.822        c15.642,23.686,25.523,51.444,27.608,81.089c0.199,2.384,0.298,4.767,0.397,7.15        C3645.689,1577.766,3589.727,1632.983,3522.193,1632.983z" opacity=".09"/><g><path fill="#5d80ce" d="M2966.023,1568.25c1.603,51.556-40.87,93.496-92.16,93.496h-615.465        c-49.152,0-90.022-39.269-90.29-88.152v-1.07c0-72.123,58.234-130.359,130.092-130.359c6.678,0,12.822,0.535,18.967,1.337        c20.302-69.988,84.947-121.545,161.613-121.545c48.618,0,92.16,20.837,122.879,53.693        c18.699-10.151,39.802-16.027,62.509-16.027c58.501,0,107.919,38.467,124.481,91.625c18.967-7.479,40.337-10.686,62.509-8.013        c39.268,4.273,72.926,26.445,93.763,57.966c11.754,17.897,19.232,39.001,20.835,61.707        C2966.023,1564.777,2966.023,1566.38,2966.023,1568.25z"/><path d="M2966.023,1568.25c1.603,51.556-40.87,93.496-92.16,93.496h-615.465        c0,0,373.98-41.405,433.817-121.543c60.372-80.139-90.557-164.553-90.557-164.553c18.699-10.151,39.802-16.027,62.509-16.027        c58.501,0,107.919,38.467,124.481,91.625c18.967-7.479,40.337-10.686,62.509-8.013c39.268,4.273,72.926,26.445,93.763,57.966        c11.754,17.897,19.232,39.001,20.835,61.707C2966.023,1564.777,2966.023,1566.38,2966.023,1568.25z" opacity=".07"/><path d="M2873.762,1661.717h-260.17c70.323-8.993,140.722-13.075,210.479-26.036        c54.339-10.089,93.979-36.995,118.465-87.479c4.157-8.578,5.328-29.135,2.305-47.046        c11.903,18.025,19.423,39.148,21.01,61.708c0.151,1.813,0.227,3.627,0.302,5.441        C2967.741,1619.697,2925.154,1661.717,2873.762,1661.717z" opacity=".09"/></g></g><g><path fill="#5d80ce" d="M7110.265,1969.533c2.106,67.748-53.706,122.86-121.105,122.86h-808.769        c-64.59,0-118.297-51.603-118.648-115.839v-1.405c0-94.776,76.524-171.302,170.951-171.302c8.775,0,16.849,0.703,24.924,1.757        c26.679-91.969,111.627-159.72,212.371-159.72c63.889,0,121.105,27.381,161.473,70.557        c24.572-13.339,52.303-21.061,82.143-21.061c76.875,0,141.814,50.548,163.578,120.403        c24.924-9.828,53.006-14.042,82.142-10.531c51.6,5.616,95.829,34.752,123.211,76.173        c15.445,23.519,25.272,51.251,27.379,81.087C7110.265,1964.97,7110.265,1967.076,7110.265,1969.533z"/><path d="M7110.265,1969.533c2.106,67.748-53.706,122.86-121.105,122.86h-808.769        c0,0,491.439-54.409,570.07-159.718c79.332-105.309-119-216.235-119-216.235c24.572-13.339,52.303-21.061,82.143-21.061        c76.875,0,141.814,50.548,163.578,120.403c24.924-9.828,53.006-14.042,82.142-10.531c51.6,5.616,95.829,34.752,123.211,76.173        c15.445,23.519,25.272,51.251,27.379,81.087C7110.265,1964.97,7110.265,1967.076,7110.265,1969.533z" opacity=".07"/><path d="M6989.025,2092.355h-341.884c92.41-11.818,184.921-17.181,276.586-34.213        c71.405-13.258,123.495-48.613,155.673-114.954c5.463-11.272,7.002-38.285,3.029-61.823        c15.641,23.686,25.523,51.444,27.609,81.089c0.198,2.383,0.297,4.767,0.396,7.15        C7112.521,2037.138,7056.559,2092.355,6989.025,2092.355z" opacity=".09"/><g><path fill="#5d80ce" d="M6432.855,2027.623c1.604,51.556-40.869,93.495-92.16,93.495H5725.23        c-49.152,0-90.021-39.269-90.289-88.152v-1.069c0-72.124,58.233-130.359,130.092-130.359c6.678,0,12.821,0.535,18.967,1.337        c20.302-69.988,84.946-121.545,161.612-121.545c48.618,0,92.159,20.837,122.879,53.693        c18.699-10.151,39.802-16.027,62.509-16.027c58.502,0,107.92,38.467,124.481,91.625c18.967-7.479,40.337-10.686,62.509-8.014        c39.268,4.273,72.926,26.446,93.763,57.967c11.754,17.897,19.232,39.001,20.835,61.707        C6432.855,2024.15,6432.855,2025.753,6432.855,2027.623z"/><path d="M6432.855,2027.623c1.604,51.556-40.869,93.495-92.16,93.495H5725.23        c0,0,373.98-41.405,433.818-121.543c60.371-80.139-90.558-164.552-90.558-164.552c18.699-10.151,39.802-16.027,62.509-16.027        c58.502,0,107.92,38.467,124.481,91.625c18.967-7.479,40.337-10.686,62.509-8.014c39.268,4.273,72.926,26.446,93.763,57.967        c11.754,17.897,19.232,39.001,20.835,61.707C6432.855,2024.15,6432.855,2025.753,6432.855,2027.623z" opacity=".07"/><path d="M6340.594,2121.09h-260.17c70.323-8.994,140.723-13.075,210.479-26.036        c54.34-10.09,93.979-36.995,118.466-87.479c4.157-8.578,5.328-29.134,2.306-47.046c11.902,18.025,19.422,39.148,21.01,61.708        c0.15,1.813,0.227,3.627,0.302,5.441C6434.572,2079.069,6391.985,2121.09,6340.594,2121.09z" opacity=".09"/></g></g></g><g><circle cx="6794.076" cy="2551.174" r="53.226" fill="#ffd243"/><circle cx="6629.274" cy="2396.084" r="24.237" fill="#ffd243"/><circle cx="6425.298" cy="2344.236" r="24.237" fill="#ffd243"/><circle cx="6840.249" cy="2853.557" r="24.237" fill="#ffd243"/><circle cx="6346.429" cy="2545.339" r="38.847" fill="#ffd243"/><polygon fill="#ffd243" points="6836.844 2854.069 6790.855 2552.888 6629.059 2404.292 6475.243 2416.142 6348.914 2547.713 6343.953 2542.955 6472.086 2409.49 6631.516 2397.189 6632.609 2398.204 6797.305 2549.46 6797.485 2550.655 6843.654 2853.032"/><rect width="85.814" height="6.887" x="6405.322" y="2374.817" fill="#ffd243" transform="rotate(53.646 6447.92 2378.111)"/><polygon fill="#ffd243" points="2993.977 1853.182 2975.734 1816.218 2934.942 1810.29 2964.46 1781.518 2957.491 1740.891 2993.977 1760.072 3030.463 1740.891 3023.495 1781.518 3053.012 1810.29 3012.22 1816.218"/><defs><filter id="a" width="799.161" height="184.214" x="2957.491" y="1668.967" filterUnits="userSpaceOnUse"><feFlood flood-color="#fff" flood-opacity="1" result="back"/><feBlend in="SourceGraphic" in2="back"/></filter></defs><mask id="c" width="799.161" height="184.214" x="2957.491" y="1668.967" maskUnits="userSpaceOnUse"><g filter="url(#a)"><defs><filter id="b" width="799.161" height="184.214" x="2957.491" y="1668.967" filterUnits="userSpaceOnUse"><feFlood flood-color="#fff" flood-opacity="1" result="back"/><feBlend in="SourceGraphic" in2="back"/></filter></defs><linearGradient id="d" x1="3730.695" x2="2949.557" y1="1719.582" y2="1779.486" gradientUnits="userSpaceOnUse"><stop offset="0"/><stop offset=".085" stop-color="#080808"/><stop offset=".22" stop-color="#1f1f1f"/><stop offset=".387" stop-color="#444"/><stop offset=".58" stop-color="#787878"/><stop offset=".793" stop-color="#b9b9b9"/><stop offset="1" stop-color="#fff"/></linearGradient><path fill="url(#d)" d="M2957.491,1740.891l36.486,112.291         c0,0,536.201-183.905,762.675-154.792C3756.652,1698.39,3395.399,1609.426,2957.491,1740.891z" mask="url(#c)"/></g></mask><linearGradient id="e" x1="3730.695" x2="2949.557" y1="1719.582" y2="1779.486" gradientUnits="userSpaceOnUse"><stop offset="0" stop-color="#fff"/><stop offset=".106" stop-color="#fffdf7"/><stop offset=".274" stop-color="#fff8e0"/><stop offset=".481" stop-color="#ffefbb"/><stop offset=".722" stop-color="#ffe288"/><stop offset=".986" stop-color="#ffd347"/><stop offset="1" stop-color="#ffd243"/></linearGradient><path fill="url(#e)" d="M2957.491,1740.891l36.486,112.291c0,0,536.201-183.905,762.675-154.792       C3756.652,1698.39,3395.399,1609.426,2957.491,1740.891z" opacity=".23"/><defs><filter id="f" width="730.174" height="130.126" x="2993.977" y="1686.091" filterUnits="userSpaceOnUse"><feFlood flood-color="#fff" flood-opacity="1" result="back"/><feBlend in="SourceGraphic" in2="back"/></filter></defs><mask id="h" width="730.174" height="130.126" x="2993.977" y="1686.091" maskUnits="userSpaceOnUse"><g filter="url(#f)"><defs><filter id="g" width="730.174" height="130.126" x="2993.977" y="1686.091" filterUnits="userSpaceOnUse"><feFlood flood-color="#fff" flood-opacity="1" result="back"/><feBlend in="SourceGraphic" in2="back"/></filter></defs><linearGradient id="i" x1="3699.811" x2="2984.72" y1="1714.563" y2="1769.402" gradientUnits="userSpaceOnUse"><stop offset="0"/><stop offset=".085" stop-color="#080808"/><stop offset=".22" stop-color="#1f1f1f"/><stop offset=".387" stop-color="#444"/><stop offset=".58" stop-color="#787878"/><stop offset=".793" stop-color="#b9b9b9"/><stop offset="1" stop-color="#fff"/></linearGradient><path fill="url(#i)" d="M2993.977,1760.072l18.243,56.146         c0,0,503.97-140.248,711.932-113.515C3724.151,1702.703,3396.088,1639.354,2993.977,1760.072z" mask="url(#h)"/></g></mask><linearGradient id="j" x1="3699.811" x2="2984.72" y1="1714.563" y2="1769.402" gradientUnits="userSpaceOnUse"><stop offset="0" stop-color="#fff"/><stop offset=".106" stop-color="#fffdf7"/><stop offset=".274" stop-color="#fff8e0"/><stop offset=".481" stop-color="#ffefbb"/><stop offset=".722" stop-color="#ffe288"/><stop offset=".986" stop-color="#ffd347"/><stop offset="1" stop-color="#ffd243"/></linearGradient><path fill="url(#j)" d="M2993.977,1760.072l18.243,56.146c0,0,503.97-140.248,711.932-113.515       C3724.151,1702.703,3396.088,1639.354,2993.977,1760.072z" opacity=".69"/><g><polygon fill="#ffd243" points="5864.906 3426.591 5846.663 3389.627 5805.871 3383.699 5835.389 3354.927 5828.42 3314.299 5864.906 3333.481 5901.392 3314.299 5894.424 3354.927 5923.941 3383.699 5883.148 3389.627"/><defs><filter id="k" width="799.161" height="184.215" x="5828.42" y="3242.376" filterUnits="userSpaceOnUse"><feFlood flood-color="#fff" flood-opacity="1" result="back"/><feBlend in="SourceGraphic" in2="back"/></filter></defs><mask id="m" width="799.161" height="184.215" x="5828.42" y="3242.376" maskUnits="userSpaceOnUse"><g filter="url(#k)"><defs><filter id="l" width="799.161" height="184.215" x="5828.42" y="3242.376" filterUnits="userSpaceOnUse"><feFlood flood-color="#fff" flood-opacity="1" result="back"/><feBlend in="SourceGraphic" in2="back"/></filter></defs><linearGradient id="n" x1="6601.624" x2="5820.486" y1="3292.992" y2="3352.896" gradientUnits="userSpaceOnUse"><stop offset="0"/><stop offset=".085" stop-color="#080808"/><stop offset=".22" stop-color="#1f1f1f"/><stop offset=".387" stop-color="#444"/><stop offset=".58" stop-color="#787878"/><stop offset=".793" stop-color="#b9b9b9"/><stop offset="1" stop-color="#fff"/></linearGradient><path fill="url(#n)" d="M5828.42,3314.299l36.486,112.292         c0,0,536.2-183.905,762.675-154.792C6627.581,3271.799,6266.328,3182.835,5828.42,3314.299z" mask="url(#m)"/></g></mask><linearGradient id="o" x1="6601.624" x2="5820.486" y1="3292.992" y2="3352.896" gradientUnits="userSpaceOnUse"><stop offset="0" stop-color="#fff"/><stop offset=".106" stop-color="#fffdf7"/><stop offset=".274" stop-color="#fff8e0"/><stop offset=".481" stop-color="#ffefbb"/><stop offset=".722" stop-color="#ffe288"/><stop offset=".986" stop-color="#ffd347"/><stop offset="1" stop-color="#ffd243"/></linearGradient><path fill="url(#o)" d="M5828.42,3314.299l36.486,112.292c0,0,536.2-183.905,762.675-154.792       C6627.581,3271.799,6266.328,3182.835,5828.42,3314.299z" opacity=".23"/><defs><filter id="p" width="730.174" height="130.127" x="5864.906" y="3259.5" filterUnits="userSpaceOnUse"><feFlood flood-color="#fff" flood-opacity="1" result="back"/><feBlend in="SourceGraphic" in2="back"/></filter></defs><mask id="r" width="730.174" height="130.127" x="5864.906" y="3259.5" maskUnits="userSpaceOnUse"><g filter="url(#p)"><defs><filter id="q" width="730.174" height="130.127" x="5864.906" y="3259.5" filterUnits="userSpaceOnUse"><feFlood flood-color="#fff" flood-opacity="1" result="back"/><feBlend in="SourceGraphic" in2="back"/></filter></defs><linearGradient id="s" x1="6570.739" x2="5855.649" y1="3287.973" y2="3342.811" gradientUnits="userSpaceOnUse"><stop offset="0"/><stop offset=".085" stop-color="#080808"/><stop offset=".22" stop-color="#1f1f1f"/><stop offset=".387" stop-color="#444"/><stop offset=".58" stop-color="#787878"/><stop offset=".793" stop-color="#b9b9b9"/><stop offset="1" stop-color="#fff"/></linearGradient><path fill="url(#s)" d="M5864.906,3333.481l18.242,56.146         c0,0,503.971-140.248,711.932-113.516C6595.08,3276.111,6267.017,3212.764,5864.906,3333.481z" mask="url(#r)"/></g></mask><linearGradient id="t" x1="6570.739" x2="5855.649" y1="3287.973" y2="3342.811" gradientUnits="userSpaceOnUse"><stop offset="0" stop-color="#fff"/><stop offset=".106" stop-color="#fffdf7"/><stop offset=".274" stop-color="#fff8e0"/><stop offset=".481" stop-color="#ffefbb"/><stop offset=".722" stop-color="#ffe288"/><stop offset=".986" stop-color="#ffd347"/><stop offset="1" stop-color="#ffd243"/></linearGradient><path fill="url(#t)" d="M5864.906,3333.481l18.242,56.146c0,0,503.971-140.248,711.932-113.516       C6595.08,3276.111,6267.017,3212.764,5864.906,3333.481z" opacity=".69"/></g><g><polygon fill="#ffd243" points="4466.139 1655.843 4447.896 1618.878 4407.104 1612.951 4436.621 1584.179 4429.652 1543.551 4466.139 1562.733 4502.624 1543.551 4495.656 1584.179 4525.174 1612.951 4484.381 1618.878"/><defs><filter id="u" width="799.162" height="184.215" x="4429.652" y="1471.628" filterUnits="userSpaceOnUse"><feFlood flood-color="#fff" flood-opacity="1" result="back"/><feBlend in="SourceGraphic" in2="back"/></filter></defs><mask id="w" width="799.162" height="184.215" x="4429.652" y="1471.628" maskUnits="userSpaceOnUse"><g filter="url(#u)"><defs><filter id="v" width="799.162" height="184.215" x="4429.652" y="1471.628" filterUnits="userSpaceOnUse"><feFlood flood-color="#fff" flood-opacity="1" result="back"/><feBlend in="SourceGraphic" in2="back"/></filter></defs><linearGradient id="x" x1="5202.857" x2="4421.718" y1="1522.243" y2="1582.147" gradientUnits="userSpaceOnUse"><stop offset="0"/><stop offset=".085" stop-color="#080808"/><stop offset=".22" stop-color="#1f1f1f"/><stop offset=".387" stop-color="#444"/><stop offset=".58" stop-color="#787878"/><stop offset=".793" stop-color="#b9b9b9"/><stop offset="1" stop-color="#fff"/></linearGradient><path fill="url(#x)" d="M4429.652,1543.551l36.486,112.292         c0,0,536.2-183.905,762.676-154.792C5228.814,1501.05,4867.561,1412.087,4429.652,1543.551z" mask="url(#w)"/></g></mask><linearGradient id="y" x1="5202.857" x2="4421.718" y1="1522.243" y2="1582.147" gradientUnits="userSpaceOnUse"><stop offset="0" stop-color="#fff"/><stop offset=".106" stop-color="#fffdf7"/><stop offset=".274" stop-color="#fff8e0"/><stop offset=".481" stop-color="#ffefbb"/><stop offset=".722" stop-color="#ffe288"/><stop offset=".986" stop-color="#ffd347"/><stop offset="1" stop-color="#ffd243"/></linearGradient><path fill="url(#y)" d="M4429.652,1543.551l36.486,112.292c0,0,536.2-183.905,762.676-154.792       C5228.814,1501.05,4867.561,1412.087,4429.652,1543.551z" opacity=".23"/><defs><filter id="z" width="730.174" height="130.126" x="4466.139" y="1488.752" filterUnits="userSpaceOnUse"><feFlood flood-color="#fff" flood-opacity="1" result="back"/><feBlend in="SourceGraphic" in2="back"/></filter></defs><mask id="B" width="730.174" height="130.126" x="4466.139" y="1488.752" maskUnits="userSpaceOnUse"><g filter="url(#z)"><defs><filter id="A" width="730.174" height="130.126" x="4466.139" y="1488.752" filterUnits="userSpaceOnUse"><feFlood flood-color="#fff" flood-opacity="1" result="back"/><feBlend in="SourceGraphic" in2="back"/></filter></defs><linearGradient id="C" x1="5171.971" x2="4456.881" y1="1517.224" y2="1572.063" gradientUnits="userSpaceOnUse"><stop offset="0"/><stop offset=".085" stop-color="#080808"/><stop offset=".22" stop-color="#1f1f1f"/><stop offset=".387" stop-color="#444"/><stop offset=".58" stop-color="#787878"/><stop offset=".793" stop-color="#b9b9b9"/><stop offset="1" stop-color="#fff"/></linearGradient><path fill="url(#C)" d="M4466.139,1562.733l18.242,56.146         c0,0,503.971-140.248,711.932-113.515C5196.313,1505.364,4868.249,1442.016,4466.139,1562.733z" mask="url(#B)"/></g></mask><linearGradient id="D" x1="5171.971" x2="4456.881" y1="1517.224" y2="1572.063" gradientUnits="userSpaceOnUse"><stop offset="0" stop-color="#fff"/><stop offset=".106" stop-color="#fffdf7"/><stop offset=".274" stop-color="#fff8e0"/><stop offset=".481" stop-color="#ffefbb"/><stop offset=".722" stop-color="#ffe288"/><stop offset=".986" stop-color="#ffd347"/><stop offset="1" stop-color="#ffd243"/></linearGradient><path fill="url(#D)" d="M4466.139,1562.733l18.242,56.146c0,0,503.971-140.248,711.932-113.515       C5196.313,1505.364,4868.249,1442.016,4466.139,1562.733z" opacity=".69"/></g><polygon fill="#ffd243" points="6151.965 2398.233 6121.621 2395.995 6102.574 2419.723 6095.326 2390.172 6066.875 2379.39 6092.739 2363.365 6094.201 2332.974 6117.435 2352.621 6146.79 2344.62 6135.284 2372.787"/><polygon fill="#ffd243" points="6864.574 3172.034 6834.229 3169.796 6815.184 3193.523 6807.936 3163.973 6779.484 3153.19 6805.348 3137.166 6806.811 3106.774 6830.043 3126.422 6859.398 3118.421 6847.893 3146.588"/><polygon fill="#ffd243" points="3522.114 1818.922 3491.77 1816.683 3472.724 1840.41 3465.476 1810.86 3437.024 1800.078 3462.889 1784.053 3464.351 1753.662 3487.583 1773.309 3516.939 1765.308 3505.434 1793.475"/><polygon fill="#ffd243" points="5125.318 2969.3 5094.975 2967.062 5075.928 2990.789 5068.68 2961.238 5040.229 2950.456 5066.093 2934.432 5067.555 2904.04 5090.787 2923.688 5120.144 2915.687 5108.638 2943.854"/><g><circle cx="1711.134" cy="3142.086" r="72.364" fill="#ffd243"/><circle cx="1973.804" cy="3302.291" r="32.951" fill="#ffd243"/><circle cx="2259.694" cy="3314.175" r="32.951" fill="#ffd243"/><circle cx="1565.063" cy="2752.713" r="32.951" fill="#ffd243"/><circle cx="2308.332" cy="3024.545" r="52.814" fill="#ffd243"/><polygon fill="#ffd243" points="1970.514 3301.445 1707.338 3145.263 1706.752 3143.729 1560.682 2754.359 1569.453 2751.067 1714.937 3138.904 1971.799 3291.321 2173.125 3232.48 2304.358 3022.068 2312.295 3027.029 2179.168 3240.463"/><polygon fill="#ffd243" points="2260.061 3317.669 2173.035 3239.967 2179.258 3232.977 2266.285 3310.68"/></g><g><polygon fill="#ffd243" points="2338.393 2722.545 2309.146 2669.031 2248.483 2662.787 2290.339 2618.436 2277.532 2558.813 2332.647 2584.914 2385.395 2554.309 2377.602 2614.793 2423.009 2655.501 2363.078 2666.78"/><defs><filter id="E" width="1178.662" height="302.813" x="2277.532" y="2419.732" filterUnits="userSpaceOnUse"><feFlood flood-color="#fff" flood-opacity="1" result="back"/><feBlend in="SourceGraphic" in2="back"/></filter></defs><mask id="G" width="1178.662" height="302.813" x="2277.532" y="2419.732" maskUnits="userSpaceOnUse"><g filter="url(#E)"><defs><filter id="F" width="1178.662" height="302.813" x="2277.532" y="2419.732" filterUnits="userSpaceOnUse"><feFlood flood-color="#fff" flood-opacity="1" result="back"/><feBlend in="SourceGraphic" in2="back"/></filter></defs><linearGradient id="H" x1="3429.153" x2="2273.468" y1="2440.505" y2="2529.132" gradientTransform="rotate(-2.39 4363.303 2697.79)" gradientUnits="userSpaceOnUse"><stop offset="0"/><stop offset=".085" stop-color="#080808"/><stop offset=".22" stop-color="#1f1f1f"/><stop offset=".387" stop-color="#444"/><stop offset=".58" stop-color="#787878"/><stop offset=".793" stop-color="#b9b9b9"/><stop offset="1" stop-color="#fff"/></linearGradient><path fill="url(#H)" d="M2277.532,2558.813l60.861,163.732         c0,0,781.239-304.932,1117.8-275.874C3456.193,2446.671,2916.715,2337.463,2277.532,2558.813z" mask="url(#G)"/></g></mask><linearGradient id="I" x1="3429.153" x2="2273.468" y1="2440.505" y2="2529.132" gradientTransform="rotate(-2.39 4363.303 2697.79)" gradientUnits="userSpaceOnUse"><stop offset="0" stop-color="#fff"/><stop offset=".106" stop-color="#fffdf7"/><stop offset=".274" stop-color="#fff8e0"/><stop offset=".481" stop-color="#ffefbb"/><stop offset=".722" stop-color="#ffe288"/><stop offset=".986" stop-color="#ffd347"/><stop offset="1" stop-color="#ffd243"/></linearGradient><path fill="url(#I)" d="M2277.532,2558.813l60.861,163.732c0,0,781.239-304.932,1117.8-275.874       C3456.193,2446.671,2916.715,2337.463,2277.532,2558.813z" opacity=".23"/><defs><filter id="J" width="1075.771" height="224.634" x="2332.647" y="2442.146" filterUnits="userSpaceOnUse"><feFlood flood-color="#fff" flood-opacity="1" result="back"/><feBlend in="SourceGraphic" in2="back"/></filter></defs><mask id="L" width="1075.771" height="224.634" x="2332.647" y="2442.146" maskUnits="userSpaceOnUse"><g filter="url(#J)"><defs><filter id="K" width="1075.771" height="224.634" x="2332.647" y="2442.146" filterUnits="userSpaceOnUse"><feFlood flood-color="#fff" flood-opacity="1" result="back"/><feBlend in="SourceGraphic" in2="back"/></filter></defs><linearGradient id="M" x1="3383.459" x2="2325.492" y1="2433.077" y2="2514.21" gradientTransform="rotate(-2.39 4363.303 2697.79)" gradientUnits="userSpaceOnUse"><stop offset="0"/><stop offset=".085" stop-color="#080808"/><stop offset=".22" stop-color="#1f1f1f"/><stop offset=".387" stop-color="#444"/><stop offset=".58" stop-color="#787878"/><stop offset=".793" stop-color="#b9b9b9"/><stop offset="1" stop-color="#fff"/></linearGradient><path fill="url(#M)" d="M2332.647,2584.914l30.431,81.866         c0,0,736.291-238.41,1045.34-211.728C3408.418,2455.052,2919.58,2381.659,2332.647,2584.914z" mask="url(#L)"/></g></mask><linearGradient id="N" x1="3383.459" x2="2325.492" y1="2433.077" y2="2514.21" gradientTransform="rotate(-2.39 4363.303 2697.79)" gradientUnits="userSpaceOnUse"><stop offset="0" stop-color="#fff"/><stop offset=".106" stop-color="#fffdf7"/><stop offset=".274" stop-color="#fff8e0"/><stop offset=".481" stop-color="#ffefbb"/><stop offset=".722" stop-color="#ffe288"/><stop offset=".986" stop-color="#ffd347"/><stop offset="1" stop-color="#ffd243"/></linearGradient><path fill="url(#N)" d="M2332.647,2584.914l30.431,81.866c0,0,736.291-238.41,1045.34-211.728       C3408.418,2455.052,2919.58,2381.659,2332.647,2584.914z" opacity=".69"/></g></g><ellipse cx="4036.376" cy="3882.031" fill="#d6e7fd" rx="2945.948" ry="262.334"/><g><path fill="#7c4040" d="M4464.718,2779.021l-377.282,1026.61c-1.124,3.062-4.66,4.683-7.898,3.618     c-3.16-1.038-4.863-4.256-3.9-7.253l334.611-1039.75c4.603-14.313,20.61-22.385,35.746-18.031     c15.139,4.355,23.677,19.488,19.071,33.801C4464.968,2778.319,4464.826,2778.723,4464.718,2779.021z"/><polygon fill="#ffc866" points="4630.425 2323.436 4628.576 2328.977 4608.257 2387.855 4592.092 2434.497 4569.465 2499.842 4448.475 2851.036 4441.777 2870.433 4441.549 2871.126 4440.165 2870.663 4431.851 2868.124 4425.385 2866.045 4381.055 2852.423 4374.126 2850.344 4380.823 2830.719 4484.496 2529.627 4526.752 2407.251 4562.771 2302.424 4623.497 2321.358"/><path fill="#7c4040" d="M4360.65,3165.067l-5.346,16.08c-3.217,9.608-13.797,14.962-23.77,12.033l-71.199-21.148     c-9.019-2.675-14.307-11.269-12.828-19.978c0.122-0.871,0.347-1.789,0.621-2.658l5.346-16.08     c3.217-9.609,13.848-14.962,23.77-12.033l71.199,21.148c6.163,1.817,10.542,6.377,12.273,11.875     C4361.793,3157.713,4361.853,3161.397,4360.65,3165.067z"/><path d="M4360.65 3165.067l-5.346 16.08c-3.217 9.608-13.797 14.962-23.77 12.033l-71.199-21.148c-9.019-2.675-14.307-11.269-12.828-19.978 32.374 9.349 85.503 20.348 113.209 2.252C4361.793 3157.713 4361.853 3161.397 4360.65 3165.067zM4630.425 2323.436l-1.849 5.541-20.319 58.879-16.165 46.642-22.627 65.345-120.99 351.194-6.697 19.396-.229.693-1.384-.463-8.314-2.539-6.466-2.079c2.312-6.234 4.619-12.93 7.159-19.856 9.005-25.63 19.856-56.339 30.711-87.741 21.241-59.341 42.944-121.221 55.645-157.703 18.241-52.414-9.696-67.422-34.403-71.117l42.256-122.376 36.019-104.827 60.727 18.934L4630.425 2323.436z" opacity=".28"/><path fill="#7c4040" d="M4460.97,2873.668l-5.346,16.08c-3.217,9.609-13.798,14.962-23.77,12.033l-71.199-21.148     c-9.019-2.675-14.308-11.269-12.829-19.977c0.123-0.871,0.348-1.79,0.621-2.659l5.346-16.08     c3.217-9.608,13.849-14.962,23.77-12.033l71.199,21.148c6.163,1.817,10.542,6.377,12.273,11.876     C4462.111,2866.313,4462.172,2869.998,4460.97,2873.668z"/><path d="M4460.97,2873.668l-5.346,16.08c-3.217,9.609-13.798,14.962-23.77,12.033l-71.199-21.148     c-9.019-2.675-14.308-11.269-12.829-19.977c32.375,9.348,85.503,20.347,113.209,2.252     C4462.111,2866.313,4462.172,2869.998,4460.97,2873.668z" opacity=".28"/><path fill="#ffb478" d="M4265.972,2491.929c0.264,17.374-21.583,89.497-27.376,100.288    c-5.791,11.057-65.279,58.7-72.123,64.227c-0.791,0.527-3.683,4.213-7.895,10.267c-1.314,1.843-2.632,3.948-4.213,6.317    c-31.322,48.434-121.873,181.098-212.16,266.118c-57.381,53.698-107.917,95.024-152.667,67.385    c-63.174-38.692-54.486-121.608-10.793-179.78c77.65-27.64,138.983-65.806,186.627-103.185    c5.791-4.475,11.317-8.948,16.844-13.423c50.017-41.59,83.18-80.547,103.712-101.079c24.48-38.956,25.008-67.912,27.637-90.813    c0.264-32.376,19.741-74.754,25.795,4.213c-0.26,6.58-0.26,11.844,0,14.477c1.054,10.792,47.908-26.849,51.594-50.802    c3.686-23.954,21.583-95.025,38.434-83.18C4246.229,2414.805,4265.708,2474.293,4265.972,2491.929z"/><path d="M4154.365,2673.027c-31.322,48.434-121.873,181.098-212.16,266.118    c-57.381,53.698-107.917,95.024-152.667,67.385c-63.174-38.692-54.486-121.608-10.793-179.78    c77.65-27.64,138.983-65.806,186.627-103.185c0.527,28.692-16.298,127.182-41.897,173.796    c-18.204,33.148,30.839,3.882,49.527-14.809C3990.115,2865.182,4117.779,2687.768,4154.365,2673.027z" opacity=".28"/><path fill="#4c2103" d="M3973.001,1982.766c0,0,92.84,45.524,64.648,178.775c-7.731,36.54-35.775,41.04-32.025,66.512    s30.361,53.829-1.981,70.101c-32.342,16.271-46.505,40.517-41.64,59.669c4.864,19.153,8.053,42.57-10.412,53.988    c-18.465,11.418-39.55,21.034-35.665,42.036s16.357,88.428-12.465,99.476c-28.822,11.047-265.782-12.949-265.782-12.949    L3973.001,1982.766z"/><path fill="#ff9d5a" d="M3623.919,3868.075c0,0-166.414-33.753-223.074-47.724c-23.494-5.793-89.676-18.928-89.676-18.928    l68.325-128.822c0,0,222.892,49.305,265.055,54.187L3623.919,3868.075z"/><path fill="#6d87d0" d="M2960.007,3773.888c0.924,0.876,1.989,1.64,3.055,2.404c3.054,2.405,6.771,4.63,11.021,6.659    c53.484,26.317,194.358,38.524,243.647,25.771c13.882-3.647,28.051-5.34,42.408-5.345c58.583-0.011,96.145,8.823,108.837,9.909    c-10.1-14.63-9.926-73.703,15.437-100.122c19.979-20.889,34.373-1.276,77.362-22.706c0,0-19.504-27.511-46.874-47.984    c-7.413-5.729-15.545-10.772-23.937-14.692c-7.788-3.594-15.819-6.189-23.915-7.127c-48.952-5.667-81.488,39.533-148.804,39.688    c-67.316,0.155-160.677,3.831-197.112,28.455C2984.57,3713.407,2946.885,3762.113,2960.007,3773.888z"/><path fill="#fff" d="M2974.083,3782.952c9.965-14.101,25.595-33.954,47.638-57.168     c34.309-36.15,118.946-38.658,175.019-40.242l14.036-0.554c60.223-2.002,93.12-9.346,117.273-26.418     c30.246-20.982,67.206-19.139,86.851-16.096c-7.413-5.729-15.545-10.772-23.937-14.692c-21.149-0.013-47.156,4.283-70.18,20.461     c-22.035,15.396-52.933,22.073-110.47,24.129l-13.896,0.442c-61.6,1.713-145.984,4.25-183.938,44.209     c-23.046,24.123-39.002,44.58-49.419,59.269L2974.083,3782.952z"/><path fill="#ffb478" d="M4532.243,3717.684l-439.211-90.198l139.39-185.882l129.406-13.49l21.224-2.248    C4383.052,3425.865,4614.527,3502.484,4532.243,3717.684z"/><path d="M4532.243,3717.684l-439.211-90.198l139.39-185.882l129.406-13.49    c-69.694,52.608-40.703,132.862,37.23,150.451C4536.004,3609.47,4532.243,3717.684,4532.243,3717.684z" opacity=".37"/><path fill="#ffb478" d="M4535.12,3760.31c-0.18,1.708-0.449,3.327-0.719,5.036    c-26.979,170.863-98.112,200.09-382.915,209.084c-230.038,7.283-389.93-13.939-573.564-55.847    c-43.705-9.981-88.759-21.133-136.421-33.363l24.281-130.485c0,0,305.577-16.367,396.315-1.35    c90.827,14.928,198.741-155.937,198.741-155.937s37.41-23.921,171.584-17.985    C4232.422,3579.463,4554.904,3594.211,4535.12,3760.31z"/><path fill="#4c2103" d="M3973.001,1982.766c0,0-51.226-115.304-189.353-89.512c-25.071,4.682-69.472,19.528-81.136,46.118    c-2.703,6.16-3.476,13.248-7.483,18.651c-9.2,12.409-28.112,8.862-43.395,11.114c-17.99,2.65-34.004,15.919-39.952,33.103    c-5.63,16.265-2.704,34.833-9.896,50.469c-7.694,16.726-27.069,23.865-45.479,23.823c-75.094-0.171-40.421,55.108-73.477,92.665    c-19.024,21.614-64.307,36.522-66.903,69.528c-2.131,27.078,18.267,57.949-5.054,79.349    c-36.039,33.072-60.995,32.383-41.541,93.219c5.576,17.436-34.6,63.292-34.6,63.292s-13.886,34.899,21.554,53.249    c35.44,18.351,296.004-11.731,296.004-11.731L3973.001,1982.766z"/><path fill="#faacb0" d="M4383.104,3425.848c0,0-0.787,0-2.101,0.524c-22.904,7.371-247.435,85.548-283.493,345.613    c0,0-28.956,7.371-76.602,14.74c-11.054,1.843-23.161,3.686-36.322,5.001c-18.424,2.633-38.43,5.002-59.752,6.844    c-11.58,1.053-23.427,1.844-35.798,2.37c-87.125,5.264-191.628,2.368-292.968-21.848    c-79.758-19.479-158.461-53.436-209.262-120.557c-62.914-83.441-55.016-217.159-37.119-314.816    c18.691-103.71,60.279-200.313,92.918-299.547c0.791-2.106,1.317-4.476,2.108-6.581c1.054-3.422,2.368-7.107,3.422-10.529    c13.161-40.535,25.795-81.073,30.271-123.979v-2.368c0.527-9.478,0.264-35.536-1.054-63.438c0-0.264,0-0.264,0-0.525    c0-1.317-0.264-2.37-0.264-3.686c-1.844-40.8-6.581-83.18-15.792-81.601c0,0-15.793-355.352-44.75-359.826    c0,0,52.908-11.318,98.445-21.584c12.897-3.422,25.008-5.791,35.274-8.424c8.685-2.368,16.58-4.474,21.322-6.054    c3.946-1.052,7.631-2.368,12.107-4.211c2.892-1.054,6.581-2.633,9.736-4.476c16.586-7.369,33.167-18.425,49.226-31.586    c15.529-12.636,30.531-26.849,44.22-42.38c31.322-35.271,55.807-75.281,63.174-108.185l112.134,104.501    c0,0-47.115,45.8-61.857,96.866c-4.212,13.424-6.053,27.375-3.685,41.327c1.05,8.421,3.685,16.845,8.422,24.743    c11.056,18.688,29.483,37.114,50.013,56.855c8.158,7.633,15.793,16.583,22.9,25.795c8.425,10.003,16.06,20.796,23.164,32.378    c4.476,7.369,8.685,15.002,12.898,23.164c0,0,0,0,0,0.262c6.32,12.372,11.847,25.797,16.583,39.483    c4.736,13.161,8.688,26.849,11.58,41.063c0.791,3.422,1.581,7.107,1.845,10.793h0.264c3.158,17.899,4.999,36.589,4.736,55.276    c0,19.479-1.842,39.483-6.317,59.752c-1.841,9.213-4.209,18.689-7.107,27.902c-9.473,32.112-58.698,115.028-73.438,171.622    c-5.267,20.267-10.793,40.799-15.529,61.593c-17.11,77.125-22.903,159.514,44.22,250.854c17.9,5.526,62.124,13.687,117.396,24.479    c38.696,7.633,82.393,16.319,126.876,26.322c0.527-0.263,0.79,0,1.054,0C4238.332,3362.409,4341.78,3391.627,4383.104,3425.848z"/><path d="M4381.004,3426.372c-22.904,7.371-247.435,85.548-283.493,345.613c0,0-28.956,7.371-76.602,14.74    c-11.054,1.843-23.161,3.686-36.322,5.001c-18.424,2.633-38.43,5.002-59.752,6.844c-11.58,1.053-23.427,1.844-35.798,2.37    c-87.125,5.264-191.628,2.368-292.968-21.848c-79.758-19.479-158.461-53.436-209.262-120.557    c-62.914-83.441-55.016-217.159-37.119-314.816c18.691-103.71,60.279-200.313,92.918-299.547c0.791-2.106,1.317-4.476,2.108-6.581    c10.263,53.434,17.897,146.878-7.634,277.438c-42.379,215.844,44.483,400.363,290.6,416.684c246.113,16.056,312.97,0,312.97,0    s6.32-148.195,114.505-217.423C4255.182,3450.326,4364.943,3429.006,4381.004,3426.372z" opacity=".28"/><path fill="#fff" d="M3901.063,2547.113c-19.105,23.514-51.437,36.004-92.585,36.004c-4.409,0-9.186,0-13.961-0.367     c-106.176-6.981-236.237-88.91-279.59-212.724c12.86-3.308,24.983-5.877,35.271-8.449     c42.617,117.2,168.27,178.923,246.891,184.433c19.473,1.471,65.398,0.367,80.828-31.229     C3886.365,2524.702,3894.082,2535.724,3901.063,2547.113z"/><path fill="#ffb478" d="M3603.686,3927.13c0,0-166.414-33.754-223.074-47.724c-23.494-5.793-89.676-18.928-89.676-18.928    l68.325-128.822c0,0,222.891,49.305,265.055,54.186L3603.686,3927.13z"/><path fill="#6d87d0" d="M2939.772,3832.941c0.925,0.877,1.989,1.641,3.055,2.404c3.055,2.405,6.771,4.63,11.022,6.66    c53.483,26.317,194.357,38.523,243.647,25.771c13.882-3.648,28.05-5.341,42.408-5.346c58.583-0.011,96.145,8.824,108.837,9.909    c-10.099-14.63-9.926-73.703,15.437-100.122c19.98-20.889,34.374-1.276,77.362-22.706c0,0-19.505-27.511-46.874-47.984    c-7.413-5.729-15.545-10.772-23.937-14.692c-7.788-3.593-15.819-6.189-23.915-7.127c-48.952-5.667-81.489,39.534-148.805,39.688    c-67.316,0.154-160.677,3.831-197.112,28.454C2964.336,3772.461,2926.65,3821.168,2939.772,3832.941z"/><path fill="#fff" d="M2953.85,3842.006c9.964-14.101,25.594-33.954,47.638-57.168     c34.309-36.15,118.946-38.658,175.019-40.242l14.037-0.554c60.223-2.001,93.12-9.345,117.272-26.418     c30.246-20.981,67.206-19.139,86.851-16.095c-7.413-5.729-15.545-10.773-23.937-14.693c-21.149-0.013-47.156,4.283-70.179,20.461     c-22.036,15.396-52.933,22.073-110.47,24.129l-13.896,0.442c-61.6,1.714-145.984,4.25-183.938,44.209     c-23.046,24.123-39.002,44.58-49.419,59.269L2953.85,3842.006z"/><path fill="#ffb478" d="M3795.909,2388.991c-0.54,6.205-0.36,12.409,0.629,18.525c1.259,8.453,4.046,16.727,8.723,24.64    c10.971,18.615,29.316,36.871,50,56.925c-25.54,8.993-74.73,16.098-153.508-11.241c-65.468-22.662-94.965-80.666-108.274-130.756    c16.367-7.733,33.094-18.705,49.281-31.834c15.468-12.41,30.396-26.888,44.065-42.176c31.385-35.162,55.755-75.18,63.309-108.454    l111.961,104.947c0,0-46.763,45.594-61.871,96.223c-0.72,2.429-1.438,4.946-1.889,7.465c-0.63,2.428-1.079,4.855-1.438,7.284    c-0.36,1.888-0.63,3.866-0.81,5.755C3795.999,2387.192,3795.909,2388.091,3795.909,2388.991z"/><path d="M3796.539,2407.517c-65.198-32.914-144.011-83.274-109.712-134.443    c31.385-35.162,55.755-75.18,63.309-108.454l111.961,104.947C3862.097,2269.566,3786.377,2343.308,3796.539,2407.517z" opacity=".5"/><path fill="#ffb478" d="M3911.866,2041.291c0,0,82.304,80.621,53.095,163.804c1.458,28.038-20.311,60.106-48.264,87.536    c-36.82,36.131-84.37,64.215-103.7,64.44c-44.273-11.321-86.379-67.547-106.559-96.005    c-52.15-73.542-46.023-168.559-46.023-168.559l108.299-98.371L3911.866,2041.291z"/><path fill="#4c2103" d="M3833.025,2040.083c0,0,112.028,75.295,131.218,184.07c0,0,14.356-24.204,2.455-112.385    c-11.901-88.181-122.188-144.628-122.188-144.628L3833.025,2040.083z"/><path fill="#4c2103" d="M3916.69,2051.466c0,0-59.268,89.343-201.451,134.557c-84.529,26.88-67.022,58.101-67.022,58.101    s-83.336-79.966-45.393-144.942c24.372-41.736,99.173-124.925,172.321-122.226    C3815.875,1978.458,3888.562,2008.324,3916.69,2051.466z"/><path fill="#ffb478" d="M3739.788,2177.811c1.132-4.197-6.197-14.175-8.137-16.771    c-9.382-12.551-24.651-18.205-39.142-9.115c-6.18,3.876-11.363,9.648-15.799,15.898c-16.387,23.087-18.695,59.59-5.241,82.492    c4.45,7.574,33.162,18.467,41.645,8.271C3720.333,2249.911,3739.745,2177.972,3739.788,2177.811z"/><path fill="#4c2103" d="M3999.271,2029.935c28.704,26.365,47.031,63.813,55.488,102.047    c4.778,18.76,9.199,38.91,4.93,60.572c-2.214,10.671-7.506,21.429-15.559,29.294c-5.286,5.069-5.443,4.796-6.089,7.445    c-0.633,2.559-0.347,6.677,0.373,10.834c2.163,17.46,12.04,36.14,7.121,60.337c-1.587,5.992-5.305,11.981-10.212,16.032    c-4.816,4.158-11.018,6.403-14.012,7.982c-7.387,3.836-13.961,9.777-19.793,16.4c-11.13,13.252-19.989,31.817-17.271,48.328    c2.361,9.233,3.258,21.313-2.262,30.434c-5.25,9.134-13.582,14.845-21.753,19.914c7.008-6.581,14.003-13.663,17.412-21.996    c3.384-8.536,1.53-17.098-1.989-25.972c-5.308-21.885,3.358-42.24,14.797-59.277c6.008-8.526,13.685-16.267,23.375-21.541    c10.501-4.993,13.746-7.426,15.825-14.544c3.14-14.552-5.363-33.067-8.92-53.335c-0.662-5.329-1.356-11.058,0.363-17.915    c0.787-3.375,2.692-7.035,5.305-9.974l5.668-5.254c5.961-5.52,9.746-12.701,11.725-20.813c4.139-16.439,0.248-35.337-2.57-54.068    C4035.639,2097.35,4022.182,2061.343,3999.271,2029.935z"/><path d="M3993.342,2095.649c4.193,14.319,9.009,28.624,10.381,43.879c1.787,14.948,0.24,31.898-9.542,45.264     c-2.455,3.209-5.065,6.303-8.095,8.949c-2.988,2.732-3.845,3.879-4.702,6.969c-1.366,5.739,0.196,13.051,1.646,20.052     c2.958,14.257,8.52,28.773,7.172,45.32c-0.534,8.192-5.096,17.021-12.324,21.729c-7.771,4.656-13.412,6.365-19.086,11.152     c-11.118,8.613-19.95,20.672-25.264,34.026c-2.646,6.667-4.473,13.729-4.682,20.783c-0.643,6.873,2.957,13.738,3.094,21.84     c1.013,16.731-12.278,28.43-24.126,36.421c11.398-8.979,22.933-21.413,20.694-36.186c-0.495-6.889-4.813-13.771-4.535-22.07     c-0.108-7.877,1.555-15.548,4.076-22.833c5.146-14.513,13.77-27.98,25.989-37.984c5.684-5.096,14.36-8.536,19.247-11.672     c5.249-3.674,8.201-9.355,8.667-16.051c1.041-13.521-4.218-27.817-7.623-42.489c-1.584-7.446-3.426-15.233-1.421-24.188     c0.728-4.342,4.805-9.197,7.515-11.24c2.673-2.194,4.933-4.756,7.104-7.399     C4004.018,2156.932,3996.909,2124.526,3993.342,2095.649z" opacity=".5"/><path fill="#4c2103" d="M3865.282 1929.039c-27.206-7.732-56.224-13.383-84.558-15.584-27.948-1.909-58.053-1.027-79.218 12.027-11.066 6.989-21.908 18.455-38.655 25.457-15.545 5.89-30.667 8.002-43.619 11.924-13.521 4.132-20.494 10.004-25.028 23.922-5.012 13.649-10.423 29.18-22.11 41.824-12.094 13.299-29.715 16.63-42.796 20.6-6.815 2.093-13.196 4.618-19.105 8.094-5.434 3.163-9.55 7.816-12.773 13.729-6.445 11.83-9.074 26.498-12.512 40.967-3.518 14.011-7.014 31.073-20.673 41.62-12.972 9.794-27.845 13.349-41.083 19.208-6.587 2.884-13.033 6.27-17.338 11.425-4.588 4.918-4.952 12.3-5.649 19.688-1.15 14.665-1.125 29.621-3.181 44.415-2.124 14.382-5.816 30.5-18.167 39.628 11.889-9.656 14.726-25.558 16.226-39.854 1.392-14.697.714-29.485 1.221-44.424.386-7.112.254-15.73 5.629-22.486 4.968-6.551 11.969-10.513 18.688-13.902 13.483-6.675 27.955-11.251 38.366-20.127 10.205-8.528 13.261-23.071 16.162-37.318 2.969-14.354 4.845-29.538 12.056-44.234 16.972-33.928 59.258-27.624 73.749-47.308 8.229-9.67 12.795-23.003 17.203-37.239 2.259-7.136 5.732-15.939 12.541-22.765 6.69-6.831 14.854-10.641 22.435-13.38 15.25-5.196 29.648-7.967 41.668-13.196 10.809-4.708 20.802-15.578 34.23-25.125 29.985-18.813 62.892-18.799 93.263-17.928 30.862 1.705 60.507 6.7 90.538 14.429L3865.282 1929.039zM3840.2 2085.333c-9.977 5.782-19.35 12.353-27.129 19.957-8.19 7.983-12.474 15.238-17.483 27.542-2.567 5.649-4.961 11.404-8.428 17.627-3.464 6.318-8.313 12.173-12.91 16.755-8.891 9.158-19.264 17.509-26.673 25.306-7.808 8.401-11.744 15.884-10.613 26.409 1.16 10.773 4.196 24.412 3.808 37.563.084 13.517-4.929 28.646-14.18 38.722-8.823 10.204-18.093 17.519-24.587 26.97-15.048 17.414-5.508 42.422 1.002 65.798 3.155 11.921 7.134 24.688 4.428 38.568-3.158 13.778-12.12 23.565-19.844 33.071-7.715 9.412-16.619 18.625-18.81 29.729-1.703 10.78 6.381 22.291 11.089 33.225 5.453 11.055 10.979 22.217 14.867 34.035 3.805 11.637 5.948 24.877.807 36.383 4.604-11.72 1.893-24.535-2.339-35.85-4.344-11.474-10.282-22.261-16.22-33.07-2.953-5.422-5.967-10.823-8.649-16.481-2.622-5.39-5.511-12.033-4.45-18.955 2.159-13.677 11.274-23.437 18.386-33.272 7.262-9.711 14.912-19.69 16.644-30.469 1.771-10.689-1.883-22.515-5.495-34.029-3.673-11.633-8.116-23.413-10.202-36.421-1.124-6.458-1.253-13.423-.028-20.396 1.096-7.206 4.986-13.685 8.351-19.006 7.152-11.261 17.126-19.954 23.99-28.776 7.085-8.727 9.713-18.569 9.453-29.712-.177-11.643-3.142-22.164-5.273-35.808-.944-6.83-.546-15.165 2.304-22.402 2.783-7.203 6.957-13.295 11.414-18.365 9.238-10.425 17.971-17.862 25.895-26.782 7.959-8.104 11.134-16.76 15.944-28.914 3.74-10.727 10.642-25.961 20.028-35.637 9.183-10.356 19.677-18.759 30.535-26.146L3840.2 2085.333z"/><path d="M3871.939,1962.248c-26.365-7.179-54.42-8.316-80.505-2.188c-12.999,3.199-25.343,8.768-35.923,16.663     c-10.983,7.653-20.435,17.749-33.632,24.503c-13.296,6.149-26.779,8.592-39.825,12.403c-12.771,3.49-24.815,9.134-29.905,20.55     c-5.122,11.443-8.331,25.85-15.512,38.2c-6.534,12.994-19.73,23.349-33.416,27.239c-13.426,4.327-26.241,7.466-37.079,14.633     c-10.175,6.636-15.299,19.401-18.682,32.154c-3.498,12.92-5.416,26.552-9.693,40.078c-2.234,6.703-5.255,13.557-10.251,19.262     c-5.012,5.683-11.313,9.559-17.604,12.714c-12.626,6.242-26.04,9.788-37.3,16.506c-5.54,3.347-10.237,7.89-11.913,13.773     c-1.632,5.987-1.865,13.098-2.401,19.783c-0.815,13.601-1.129,27.408-3.339,41.033c-2.242,13.32-6.488,27.802-17.774,36.196     c10.818-8.949,14.179-23.25,15.763-36.477c1.513-13.521,1.151-27.168,1.291-40.9c0.19-6.936,0.081-13.676,1.822-20.955     c1.913-7.497,7.702-13.208,13.655-17.004c12.144-7.65,25.494-11.507,37.216-17.774c26.255-10.867,25.644-42.117,32.796-68.272     c3.465-13.215,8.667-28.173,21.806-37.11c12.107-8.164,26.345-11.722,38.809-15.905c12.666-3.97,22.293-11.907,28.568-23.311     c6.79-11.39,9.553-24.147,15.643-37.644c6.636-14.416,22.209-21.279,35.349-24.586c13.216-3.679,26.944-6.224,38.59-11.538     c11.356-5.655,21.406-15.513,33.075-23.136c11.683-8.015,25.026-13.366,38.72-16.164     C3817.825,1949.392,3846.147,1953.496,3871.939,1962.248z" opacity=".5"/><path d="M3764.055,2010.801c-8.602,6.922-16.522,14.592-26.018,20.634c-9.737,5.847-20.698,8.571-31.195,11.849     c-10.639,3.045-21.366,5.531-29.994,11.402c-8.924,5.557-12.878,15.187-16.039,25.728c-3.259,10.568-7.225,21.324-13.596,31.13     c-6.367,9.884-16.706,17.646-27.621,21.347c-20.952,7.384-43.956,11.711-51.795,31.54c-8.901,18.893-9.525,41.609-18.039,63.235     c-2.375,5.357-5.432,10.72-9.834,15.098c-4.433,4.162-9.398,7.418-14.495,10.075c-10.176,5.299-20.836,8.609-30.588,13.008     c-9.767,4.197-18.807,10.413-20.307,20.344c-1.665,10.542-1.76,21.643-2.407,32.667c-0.748,11.031-1.643,22.186-4.346,33.035     c-2.527,10.749-7.409,21.639-16.463,28.259c8.576-7.229,12.521-18.057,14.312-28.719c1.932-10.746,2.089-21.738,2.1-32.721     c0.161-11-0.136-22.029,1.188-33.364c1.462-12.964,13.143-21.217,22.938-25.742c19.657-9.975,43.589-14.844,50.344-35.076     c7.623-19.558,7.858-42.466,17.489-63.964c2.64-5.28,5.929-10.445,10.438-14.73c4.75-4.223,9.812-7.226,15.033-9.594     c10.464-5.049,21.669-7.425,31.569-11.002c20.902-5.94,30.484-26.618,37.564-47.055c3.35-10.191,8.844-22.286,19.475-28.244     c10.047-6.226,21.394-8.351,31.965-10.887c10.684-2.566,21.607-4.56,31.225-9.521     C3746.485,2024.334,3755.053,2017.122,3764.055,2010.801z" opacity=".4"/><path d="M4535.12,3760.31c-0.18,1.708-0.449,3.327-0.719,5.036    c-26.979,170.863-98.112,200.09-382.915,209.084c-230.038,7.283-389.93-13.939-573.564-55.847    c122.483,8.185,668.259,41.638,789.212-6.385C4457.513,3876.316,4511.289,3801.496,4535.12,3760.31z" opacity=".37"/><path d="M3749.494 2122.759c23.083-7.753 46.167-14.04 68.036-23.366 11.163-4.048 21.802-9.267 31.887-15.244 10.065-5.99 19.617-13.002 27.083-22.704-4.224 11.669-13.426 20.968-23.218 28.442-9.906 7.579-21.129 12.992-32.392 17.837C3797.915 2116.358 3773.973 2122.302 3749.494 2122.759zM3671.496 2100.292c28.787-9.056 57.5-17.244 84.55-29.391 13.754-5.469 26.923-12.256 39.16-20.33 12.238-8.027 23.663-17.502 32.288-30.004-5.33 14.369-16.301 26.093-28.243 35.617-12.03 9.684-25.799 16.691-39.659 22.969C3731.382 2090.652 3701.759 2098.516 3671.496 2100.292zM3492.613 2341.399c28.399-10.213 56.756-19.556 83.292-32.787 13.522-6.021 26.407-13.335 38.308-21.897 11.902-8.516 22.936-18.445 31.048-31.286-4.745 14.573-15.233 26.73-26.781 36.73-11.628 10.163-25.102 17.721-38.696 24.555C3552.063 2329.345 3522.781 2338.4 3492.613 2341.399z" opacity=".4"/><path d="M3949.05,2717.248c-64.226,59.226-241.638,223.477-347.718,271.12    c-60.279,27.112-113.975,48.434-153.194,38.694c13.161-40.535,25.795-81.073,30.271-123.979v-2.368    c0-7.635-0.263-31.851-1.054-63.438c0-0.264,0-0.264,0-0.525c-1.581-81.601-4.473-212.158-5.791-234.533    c48.169,36.852,40.274,119.241,50.801,127.401c114.505,87.651,383.519-149.512,391.677-158.988    c6.32,12.372,11.847,25.797,16.583,39.483c4.736,13.161,8.688,26.849,11.58,41.063c0.791,3.422,1.581,7.107,1.845,10.793h0.264    C3947.472,2679.871,3949.313,2698.561,3949.05,2717.248z" opacity=".28"/><path d="M4008.274,3313.45c-182.412,48.695-309.551,146.089-309.551,146.089    c23.958-123.979,192.154-170.568,192.154-170.568C3908.778,3294.497,3953.002,3302.657,4008.274,3313.45z" opacity=".17"/><path fill="#7c4040" d="M4634.838,2838.519l-14.292,1149.415c-0.042,3.427-2.854,6.172-6.282,6.129     c-3.345-0.042-6.037-2.731-6.127-6.043l-30.583-1149.095c-0.425-15.816,12.059-28.981,27.874-29.402     c15.818-0.421,28.982,12.062,29.404,27.878C4634.841,2837.736,4634.841,2838.186,4634.838,2838.519z"/><polygon fill="#ffc866" points="4643.7 2938.241 4626.586 2938.241 4572.891 2938.768 4570.26 2582.099 4568.415 2329.405 4639.484 2328.878"/><path fill="#7c4040" d="M4665.327,3258.781l0.311,17.825c0.165,10.658-8.081,19.378-18.521,19.595l-74.618,1.313     c-9.45,0.169-17.344-6.779-18.856-15.984c-0.175-0.913-0.27-1.906-0.301-2.864l-0.311-17.825     c-0.164-10.658,8.13-19.394,18.521-19.596l74.618-1.311c6.454-0.127,12.135,3.062,15.617,8.03     C4663.949,3251.041,4665.239,3254.719,4665.327,3258.781z"/><path d="M4665.327 3258.781l.311 17.825c.165 10.658-8.081 19.378-18.521 19.595l-74.618 1.313c-9.45.169-17.344-6.779-18.856-15.984 33.84-.865 87.92-6.643 108.146-33.565C4663.949 3251.041 4665.239 3254.719 4665.327 3258.781zM4626.586 2938.241c.264-79.758.264-227.952 0-295.863-.263-58.173-31.849-64.489-56.326-60.279l-1.845-252.693 71.069-.527 4.216 609.363H4626.586z" opacity=".28"/><path fill="#7c4040" d="M4662.961,2934.668l0.311,17.824c0.165,10.659-8.08,19.379-18.521,19.596l-74.618,1.312     c-9.451,0.17-17.344-6.779-18.856-15.984c-0.175-0.913-0.27-1.905-0.3-2.864l-0.311-17.825     c-0.165-10.658,8.129-19.394,18.52-19.595l74.619-1.312c6.454-0.127,12.135,3.063,15.617,8.031     C4661.582,2926.927,4662.873,2930.605,4662.961,2934.668z"/><path d="M4662.961,2934.668l0.311,17.824c0.165,10.659-8.08,19.379-18.521,19.596l-74.618,1.312     c-9.451,0.17-17.344-6.779-18.856-15.984c33.84-0.865,87.919-6.642,108.146-33.564     C4661.582,2926.927,4662.873,2930.605,4662.961,2934.668z" opacity=".28"/><g><path fill="#7c4040" d="M4783.803,2779.473l274.988,1055.261c0.82,3.146-1.211,6.327-4.541,7.102     c-3.248,0.757-6.529-1.065-7.449-4.073l-318.343-1044.307c-4.386-14.374,4.39-29.387,19.592-33.529     c15.205-4.144,31.083,4.151,35.466,18.525C4783.608,2778.756,4783.722,2779.168,4783.803,2779.473z"/><polygon fill="#ffc866" points="4817.449 2868.585 4816.064 2868.816 4807.521 2871.126 4800.824 2872.74 4756.264 2884.056 4749.104 2885.902 4743.563 2866.045 4656.977 2560.105 4640.583 2502.612 4621.417 2434.266 4608.257 2387.855 4591.633 2329.438 4592.323 2329.208 4623.497 2321.358 4660.209 2311.891 4686.763 2406.097 4811.676 2848.036 4817.218 2867.893"/><path fill="#7c4040" d="M4918.916,3156.825l4.779,16.238c2.838,9.715-2.952,19.653-13.002,22.332l-71.895,18.928     c-9.105,2.401-18.491-2.083-22.268-10.147c-0.399-0.794-0.74-1.68-1.012-2.55l-4.779-16.238     c-2.838-9.715,2.995-19.679,13.003-22.332l71.895-18.928c6.216-1.649,12.515-0.081,17.134,3.639     C4915.637,3150.069,4917.81,3153.129,4918.916,3156.825z"/><path d="M4918.916 3156.825l4.779 16.238c2.838 9.715-2.952 19.653-13.002 22.332l-71.895 18.928c-9.105 2.401-18.491-2.083-22.268-10.147 32.536-8.831 83.429-26.966 96.24-56.409C4915.637 3150.069 4917.81 3153.129 4918.916 3156.825zM4817.449 2868.585l-1.385.231-8.543 2.31-6.697 1.614c-1.614-6.232-3.461-13.159-5.541-20.317-6.928-26.092-15.468-57.264-24.245-89.358-16.624-60.725-34.173-123.992-44.562-161.166-14.778-53.106-46.873-51.49-69.5-41.793l-16.394-57.493-19.166-68.347-13.16-46.41-16.624-58.417.69-.23 31.174-7.85 36.712-9.468 26.554 94.207 124.913 441.939 5.542 19.856L4817.449 2868.585z" opacity=".28"/><path fill="#7c4040" d="M4835.184,2860.781l4.779,16.238c2.838,9.715-2.952,19.652-13.003,22.332l-71.895,18.928     c-9.104,2.4-18.491-2.084-22.268-10.148c-0.399-0.793-0.739-1.68-1.011-2.55l-4.779-16.238     c-2.838-9.715,2.995-19.679,13.002-22.331l71.896-18.929c6.216-1.649,12.515-0.08,17.134,3.64     C4831.903,2854.024,4834.077,2857.084,4835.184,2860.781z"/><path d="M4835.184,2860.781l4.779,16.238c2.838,9.715-2.952,19.652-13.003,22.332l-71.895,18.928     c-9.104,2.4-18.491-2.084-22.268-10.148c32.536-8.831,83.43-26.966,96.241-56.408     C4831.903,2854.024,4834.077,2857.084,4835.184,2860.781z" opacity=".28"/></g><g><polygon fill="#7c4040" points="4161.239 2520.853 4157.315 2522.7 4070.729 2563.569 4040.479 2513.695 4041.173 2513.234 4073.034 2485.987 4117.367 2448.352 4150.388 2502.844"/><path d="M4161.239,2520.853l-3.924,1.848l-86.587,40.869l-30.249-49.874l0.693-0.461l31.861-27.248     c8.777,13.624,21.244,34.405,39.485,33.25c12.93-0.692,27.479-9.004,37.868-16.393L4161.239,2520.853z" opacity=".28"/><path fill="#592c2c" d="M4105.195,2452.204l-5.769-9.177l-7.233,4.603c-0.693,0.441,11.224,21.349,26.616,46.699     c15.394,25.351,28.434,45.543,29.127,45.102l7.233-4.604L4105.195,2452.204z"/><polygon fill="#7c4040" points="4316.868 2459.414 4309.563 2462.812 4155.204 2534.814 4099.484 2443.053 4100.779 2441.954 4235.742 2325.812"/><path d="M4309.563,2462.812l-154.358,72.003l-55.72-91.762l1.295-1.099     c10.473,15.775,36.181,30.39,50.487,31.666c76.846,6.855,116.793-43.596,145.033-21.878     C4301.423,2455.688,4305.805,2459.372,4309.563,2462.812z" opacity=".28"/><polygon fill="#7c4040" points="4045.097 2513.464 3999.842 2540.249 3999.148 2539.324 3979.522 2512.31 3933.574 2449.275 3981.138 2421.104 3999.379 2410.253 4001.459 2414.871"/><path d="M4045.097,2513.464l-45.255,26.785l-0.693-0.925l-19.626-27.015     c10.852-11.776,20.781-26.553,16.624-39.945c-2.077-7.157-7.619-12.468-10.161-19.396c-2.306-6.004-3.23-13.392-3.923-19.857     c-0.462-3.925-0.693-7.85-0.924-12.007l18.242-10.852l2.08,4.618L4045.097,2513.464z" opacity=".28"/><path fill="#fff" d="M4221.665,2374.854c-12.203,18.438-27.612,32.937-43.808,46.469      c-16.516,13.139-33.836,25.29-54.392,33.465c12.177-18.469,27.59-32.963,43.807-46.469      C4183.811,2395.208,4201.133,2383.061,4221.665,2374.854z"/><path fill="#592c2c" d="M4245.14,2321.885l-11.341-16.712l-19.651,12.506c-4.218,2.684,15.603,43.133,44.27,90.345     c28.669,47.212,55.328,83.309,59.546,80.624l19.652-12.506L4245.14,2321.885z"/><polygon fill="#7c4040" points="5270.961 1933.369 5228.846 1957.849 5100.389 2032.604 4337.831 2476.136 4274.924 2372.426 4234.123 2305.041 4242.548 2299.249 5119.867 1684.623"/><path fill="#592c2c" d="M5250.807,1904.522l-4.568,3.253c-10.26-25.107-28.565-60.467-51.57-98.354     c-24.181-39.822-48.213-73.641-65.959-93.919l7.552-6.572l-17.138-23.919l-35.021,22.286     c-9.25,5.887,17.074,66.359,58.796,135.069s83.043,119.639,92.294,113.752l35.021-22.287L5250.807,1904.522z"/><path fill="#d6e7fd" d="M5270.857,1933.421c-6.082,3.871-44.835-48.692-86.557-117.403     c-41.723-68.71-70.615-127.548-64.532-131.418c6.082-3.871,78.003,27.015,119.725,95.725     C5281.215,1849.036,5276.939,1929.551,5270.857,1933.421z"/><path d="M5228.719,1957.932l-890.913,518.106l-103.772-170.897l8.386-5.848     c22.229,27.646,151.159,1.822,204.212-17.767c121.784-44.968,460.702-367.302,644.898-367.416     C5190.944,1914.048,5216.634,1954.762,5228.719,1957.932z" opacity=".09"/><path d="M5100.389,2032.604l-762.558,443.532l-62.907-103.71c48.692,3.159,120.818-7.896,157.934-18.689     C4557.099,2317.412,4916.133,2021.285,5100.389,2032.604z" opacity=".09"/><path fill="#fff" d="M5058.718 1793.813c-57.49 44.328-116.166 86.932-175.022 129.274-58.831 42.379-118.634 83.345-177.902 125.087-60.145 40.469-119.824 81.617-180.406 121.449-60.594 39.817-121.355 79.389-183.324 117.206 57.472-44.353 116.153-86.95 175.002-129.302 58.86-42.337 118.624-83.359 177.923-125.06 60.174-40.427 119.813-81.631 180.425-121.421C4935.998 1871.22 4996.766 1831.655 5058.718 1793.813zM5160.65 1728.323c16.381 1.841 31.533 10.296 44.308 20.701 12.966 10.46 23.703 23.762 31.64 38.508 7.529 14.894 13.456 30.813 15.025 47.323 2.533 16.324.85 32.918-2.645 48.646-3.931-15.843-7.224-30.976-11.911-45.483-4.269-14.602-10.338-28.33-17.255-41.423-6.725-13.264-15.48-25.361-25.168-36.904C5184.625 1748.542 5174.076 1736.983 5160.65 1728.323z"/><path fill="#683434" d="M4077.992,2566.307l-83.322-17.167c-7.248-1.493-9.132-10.97-3.006-15.121l53.553-36.294     c4.064-2.754,9.615-1.434,12.004,2.855l29.77,53.461C4090.473,2560.295,4085.004,2567.75,4077.992,2566.307z"/><path fill="#592c2c" d="M4002.221,2412.697l-69.248,40.577c-2.66,1.559-6.05,0.614-7.574-2.11l-0.233-0.418     c-1.523-2.724-0.602-6.195,2.058-7.754l69.248-40.577c2.659-1.558,6.05-0.614,7.573,2.11l0.234,0.418     C4005.802,2407.667,4004.88,2411.139,4002.221,2412.697z"/></g><path d="M4686.763,2406.097c-13.163,11.314-29.094,19.857-46.642,24.475    c-6.004,1.848-12.238,3.002-18.704,3.693c-4.849,0.693-9.696,0.925-14.544,0.925c-5.079,0-9.93-0.231-14.781-0.693    c-7.847-0.923-15.699-2.54-23.09-4.618c-9.464-3.002-18.238-6.695-26.551-11.545c-5.541-3.231-10.852-6.927-15.699-11.083    l36.019-104.827l60.727,18.934l36.712-9.468L4686.763,2406.097z" opacity=".23"/><path fill="#f2e8da" d="M4711.871,2303.987c0.263,60.542-48.166,110.029-108.709,110.291    c-21.85,0.264-42.118-6.053-59.225-16.845c-30.535-19.217-50.804-53.172-51.064-91.866    c-0.264-60.278,48.166-109.764,108.709-110.027c8.161,0,16.322,0.79,23.954,2.37    C4674.495,2208.438,4711.348,2251.869,4711.871,2303.987z"/><circle cx="4602.35" cy="2304.905" r="52.001" fill="#7c4040"/><g><path fill="#fff" d="M4606.901,2272.563c-5.724,3.262-10.954,7.12-15.701,11.211c-4.653,4.183-8.902,8.78-11.307,14.26     c-5.976,10.71-2.687,23.715,1.981,35.861c-4.071-5.122-7.959-10.86-9.324-17.722c-1.833-6.699-0.863-14.256,2.152-20.65     C4581.429,2282.9,4593.995,2275.112,4606.901,2272.563z"/></g><g opacity=".5"><path d="M4610.586,2227.826c-15.509,6.74-29.873,13.848-42.343,22.252c-12.289,8.583-22.294,18.652-26.77,30.861     c-4.944,12.055-4.695,26.284-2.631,41.28l5.243,22.858c2.406,7.664,4.916,15.418,6.658,23.925     c-6.107-5.816-11.447-12.385-16.892-19.044c-4.496-7.185-8.889-14.741-12.34-22.809c-6.291-16.395-8.568-36.205-1.456-54.803     c7.449-18.505,23.357-31.601,39.736-38.104C4576.264,2227.562,4593.71,2225.126,4610.586,2227.826z"/></g><path d="M4711.871,2303.987c0.263,60.542-48.166,110.029-108.709,110.291    c-21.85,0.264-42.118-6.053-59.225-16.845c83.967-40.526,106.606-147.406,81.599-199.524    C4674.495,2208.438,4711.348,2251.869,4711.871,2303.987z" opacity=".44"/><path fill="#ffb478" d="M4057.587,2468.891c-13.875-15.205-47.07,50.027-55.98,72.632    c-8.842,22.557-62.925,48.828-61.617,37.952c0.302-2.543,1.616-7.705,3.373-14.13c11.62-78.298-16.759-41.29-24.292-9.664    c-7.695,21.732-14.579,49.618-47.003,82.274c0,0-0.021,0.018-0.027,0.026c-49.27,30.938-164.545,122.137-348.033,143.95    c-55.422,47.098-82.463,125.817-29.466,177.664c37.644,36.829,95.954,7.906,163.892-31.838    c112.038-65.742,236.012-182.258,271.541-217.498c5.501-4.856,9.137-7.879,9.933-8.27c7.925-3.911,76.613-37.002,84.692-46.427    c8.077-9.422,45.332-74.919,48.978-91.908C4077.236,2546.603,4071.461,2484.096,4057.587,2468.891z"/><path fill="#faacb0" d="M3492.614,2739.235c0,0-47.065-343.05-76.292-347.546c0,0-0.718,0.179-1.976,0.539    c-15.291,4.137-74.31,26.567-101.916,106.784c-85.547,414.56,24.475,512.96,241.09,504.186    c8.73,9.604,54.166-168.901-5.44-226.426C3544.993,2767.93,3531.381,2762.457,3492.614,2739.235z"/></g></svg>