<svg xmlns="http://www.w3.org/2000/svg" xmlns:xlink="http://www.w3.org/1999/xlink" data-name="Layer 1" viewBox="0 0 3809.66 2486.61"><defs><linearGradient id="e" x1="2602.02" x2="2602.02" y1="717.7" y2="4167.1" gradientUnits="userSpaceOnUse"><stop offset="0" stop-color="#fff"/><stop offset=".42" stop-color="#a1d2fd"/><stop offset="1" stop-color="#1b91fb"/></linearGradient><linearGradient id="f" x1="2356.6" x2="2356.6" y1="1968.18" y2="479.28" gradientUnits="userSpaceOnUse"><stop offset="0" stop-color="#fff"/><stop offset=".11" stop-color="#fafcff"/><stop offset=".24" stop-color="#eaf5ff"/><stop offset=".38" stop-color="#d1e9fe"/><stop offset=".54" stop-color="#add8fe"/><stop offset=".71" stop-color="#80c2fd"/><stop offset=".87" stop-color="#49a7fc"/><stop offset="1" stop-color="#1b91fb"/></linearGradient><linearGradient id="a" x1="1416.69" x2="1416.69" y1="2456.84" y2="224.7" gradientUnits="userSpaceOnUse"><stop offset="0" stop-color="#fff"/><stop offset=".16" stop-color="#d4eafe"/><stop offset=".46" stop-color="#85c4fd"/><stop offset=".71" stop-color="#4ca9fc"/><stop offset=".9" stop-color="#2897fb"/><stop offset="1" stop-color="#1b91fb"/></linearGradient><linearGradient id="g" x1="992.45" x2="992.45" y1="2444.27" y2="268.8" xlink:href="#a"/><linearGradient id="h" x1="1461.56" x2="1461.56" y1="2493.66" y2="1423.59" xlink:href="#a"/><linearGradient id="d" x1="2047.19" x2="2057.37" y1="2775.2" y2="2775.2" data-name="New Gradient Swatch 2" gradientTransform="rotate(-24.74 857.272 1221.463)" gradientUnits="userSpaceOnUse"><stop offset="0" stop-color="#61d2a7"/><stop offset=".48" stop-color="#4eb98e"/><stop offset="1" stop-color="#36996e"/></linearGradient><linearGradient id="b" x1="3033.5" x2="2628.15" y1="2553.12" y2="2553.12" data-name="New Gradient Swatch 1" gradientTransform="rotate(-.75 -4647.157 5829.2)" gradientUnits="userSpaceOnUse"><stop offset="0" stop-color="#1b91fb"/><stop offset="1" stop-color="#2a4c95"/></linearGradient><linearGradient id="c" x1="1351.38" x2="1443.99" y1="3205.93" y2="3205.93" data-name="New Gradient Swatch 3" gradientTransform="rotate(-24.74 857.272 1221.463)" gradientUnits="userSpaceOnUse"><stop offset="0" stop-color="#ff851a"/><stop offset=".4" stop-color="#ff9a23"/><stop offset="1" stop-color="#ffb52f"/></linearGradient><linearGradient id="i" x1="2939.02" x2="2939.02" y1="2334.24" y2="2960.18" xlink:href="#b"/><linearGradient id="j" x1="2649.49" x2="2649.49" y1="2445.45" y2="2450.36" xlink:href="#b"/><linearGradient id="k" x1="2883.89" x2="2018.71" y1="2696.8" y2="3008.02" xlink:href="#b"/><linearGradient id="l" x1="3881.15" x2="3901.7" y1="2031.43" y2="2021.8" gradientUnits="userSpaceOnUse"><stop offset="0" stop-color="#fff"/><stop offset=".04" stop-color="#f8fcff"/><stop offset=".71" stop-color="#7abcfe"/><stop offset="1" stop-color="#48a3fe"/></linearGradient><linearGradient id="m" x1="2947.56" x2="3436.53" y1="2746.81" y2="2257.83" xlink:href="#c"/><linearGradient id="n" x1="3809.42" x2="4372.75" y1="1913.83" y2="1649.77" xlink:href="#c"/><linearGradient id="o" x1="3128.48" x2="3594.35" y1="2814.97" y2="2349.1" xlink:href="#c"/><linearGradient id="p" x1="2947.12" x2="3204.71" y1="2387.51" y2="2387.51" gradientTransform="rotate(90 2873.68 2764.86)" xlink:href="#c"/><linearGradient id="q" x1="1702.16" x2="1971.55" y1="2915.36" y2="2915.36" gradientTransform="rotate(85.47 1836.877 2915.238)" xlink:href="#d"/><linearGradient id="r" x1="2626.62" x2="2887.05" y1="1328.2" y2="1328.2" gradientTransform="rotate(90 2607.91 1736.96)" xlink:href="#d"/><linearGradient id="s" x1="1690.65" x2="1953.86" y1="2249.66" y2="2249.66" gradientTransform="rotate(85.47 1822.26 2249.56)" xlink:href="#c"/><linearGradient id="t" x1="-10048.6" x2="-10317.62" y1="2791.77" y2="2305.89" gradientTransform="matrix(-1 0 0 1 -8998.38 0)" xlink:href="#c"/><linearGradient id="u" x1="627.33" x2="1030.22" y1="2736.89" y2="2736.89" xlink:href="#d"/><linearGradient id="v" x1="1103.18" x2="849.72" y1="3040.97" y2="3040.97" xlink:href="#b"/></defs><path fill="#fff" d="M2081.14 1034.29c0-152.13 123.33-275.46 275.46-275.46s275.46 123.33 275.46 275.46-123.32 275.46-275.46 275.46S2081.14 1186.42 2081.14 1034.29zM3786.28 1724.23l448.15-76.9h0l-51.33 115.23 79.66-13.68L4123.7 2061.17a13.48 13.48 0 01-20.86 5l-96.31-78.79-86.42 56.42a14.16 14.16 0 01-21.6-13.06l.8-9.89a13.32 13.32 0 01-1.62-7.68l.13-1.27a14.2 14.2 0 001.6 7.68l7.06-87-15 9.76-.71.47a13.46 13.46 0 01-20.78-12.36l2.93-36-63.7-44.31c-9.94-6.85-6.47-22.27 5.36-24.31l62.07-10.66-95.82-66.62A13.46 13.46 0 013786.28 1724.23z" transform="translate(-627.33 -758.83)"/><path fill="#fff" d="M4436.67,2925.92c-3.42,52-33.71,102.73-86.62,151-49,44.72-117.36,87.4-201.73,126.95h-28.06c-.65.6-1.32,1.17-2,1.72-.4.31-.81.62-1.23.92l-1.1.74h145.26c11.43,0,20.78,8.59,20.78,19.07a18.28,18.28,0,0,1-6.11,13.48,21.71,21.71,0,0,1-14.67,5.6H968.67c-11.42,0-20.77-8.59-20.77-19.08a18.27,18.27,0,0,1,6.1-13.47,21.71,21.71,0,0,1,14.67-5.6H3814.26a32.34,32.34,0,0,1-4.82-3.38H1065q-5.54-3.69-11-7.49h-30.88c.82,0,1.63,0,2.43,0a64.29,64.29,0,0,1-61.72-64.24l-1.46-13a620.58,620.58,0,0,1-58.52-69.31,653.22,653.22,0,0,1-44-69.31c-40.54-73.73-66.63-154.56-80.51-240.1-76.68-21.69-145.9,19.68-151.66,5.38-2.28-5.68,7.24-15.7,21.08-26.28a359,359,0,0,1,43.07-27.57c19.76-10.82,46.53-25.47,77.8-35.88-18.92-268.52,68.29-573.34,198.8-847.12v-322.4h3.48c6.55-20.51,21.92-38,42.39-49.3a112,112,0,0,1,54.13-13.66H1193.3c185.56-263.35,386.65-436.91,502-412.19,140.91,30.17,57.68,335.23,289.57,483.28,438.76,280.11,1278-465.86,1525.12-241.65,132.32,120.1-89.07,351.49-6.44,706.35C3643.9,2561.84,4455.63,2639.58,4436.67,2925.92Z" transform="translate(-627.33 -758.83)"/><path fill="url(#e)" d="M4436.67,2925.92c-3.42,52-33.71,102.73-86.62,151-49,44.72-117.36,87.4-201.73,126.95H1065q-5.54-3.69-11-7.49-3.54-2.46-7-5a632.18,632.18,0,0,1-84.6-72.33,620.58,620.58,0,0,1-58.52-69.31,653.22,653.22,0,0,1-44-69.31c-40.54-73.73-66.63-154.56-80.51-240.1q-3-18.75-5.31-37.78-2.76-23.09-4.4-46.57c-18.92-268.52,68.29-573.34,198.8-847.12q6-12.62,12.14-25.12,10.47-21.37,21.26-42.47,7.26-14.18,14.66-28.22,3.76-7.14,7.56-14.25,11.45-21.42,23.19-42.47,12-21.43,24.19-42.46,12.46-21.46,25.21-42.47,13-21.5,26.3-42.47,13.62-21.53,27.43-42.47,21.27-32.23,42.94-63c185.56-263.35,386.65-436.91,502-412.19,140.91,30.17,57.68,335.23,289.57,483.28,438.76,280.11,1278-465.86,1525.12-241.65,132.32,120.1-89.07,351.49-6.44,706.35C3643.9,2561.84,4455.63,2639.58,4436.67,2925.92Z" opacity=".18" transform="translate(-627.33 -758.83)"/><path fill="url(#f)" d="M2632.06,1034.29c0,152.13-123.32,275.46-275.46,275.46s-275.46-123.33-275.46-275.46,123.33-275.46,275.46-275.46S2632.06,882.16,2632.06,1034.29Z" opacity=".26" transform="translate(-627.33 -758.83)"/><rect width="25.27" height="179.83" x="2279.44" y="1019.78" fill="#fff" rx="12.64" ry="12.64" transform="rotate(39.65 3030.788 -139.826)"/><rect width="18.95" height="162.67" x="2409.87" y="871.18" fill="#fff" rx="9.47" ry="9.47" transform="rotate(36.19 3266.624 -387.036)"/><circle cx="1729.6" cy="272.33" r="41.25" fill="#fff"/><path fill="url(#a)" d="M1865,1508.77V2414.3c0,34.57-24.5,64.5-59.43,77.81a113.68,113.68,0,0,1-40.56,7.38H1068.42c-.86,0-1.72,0-2.57,0-.67,0-1.35,0-2-.06l-1,0q-1,0-2.1-.12l-2.19-.16-.7-.07c-1.55-.13-3.1-.3-4.63-.51-.8-.1-1.61-.22-2.41-.34l-.09,0c-.78-.11-1.55-.24-2.32-.37l-.09,0c-.76-.13-1.52-.28-2.28-.42l-.31-.07q-2.34-.45-4.62-1c-.78-.19-1.57-.39-2.35-.6q-2.34-.62-4.64-1.34-1.16-.36-2.28-.75a105.66,105.66,0,0,1-13.09-5.38h0l-2.08-1c-.68-.35-1.35-.71-2-1.07l-.36-.2q-.84-.46-1.68-1-2-1.14-3.92-2.38c-1-.66-2.08-1.34-3.09-2.05-.26-.17-.51-.34-.75-.53l-1.61-1.14c-.66-.49-1.32-1-2-1.49s-1.18-.93-1.76-1.4-1.15-1-1.72-1.43c-1.17-1-2.3-2-3.41-3l-1.5-1.45-1.45-1.45-.11-.12c-.51-.52-1-1.06-1.51-1.59s-1-1.08-1.46-1.63-1-1.1-1.42-1.65c-.06-.06-.11-.13-.17-.2-.41-.49-.81-1-1.21-1.49s-.92-1.17-1.37-1.76-.83-1.13-1.24-1.7-.83-1.17-1.23-1.77-.8-1.19-1.18-1.79-.66-1-1-1.57c-.12-.19-.23-.38-.34-.57-.26-.43-.52-.87-.76-1.31-.44-.76-.87-1.52-1.27-2.3-.3-.56-.59-1.13-.88-1.7l0-.09q-.45-.9-.87-1.83c-.29-.62-.57-1.24-.85-1.87s-.57-1.36-.84-2-.46-1.15-.67-1.73c0-.12-.09-.24-.14-.37-.2-.55-.39-1.09-.58-1.64-.29-.86-.57-1.72-.82-2.6-.18-.57-.34-1.14-.5-1.72a1,1,0,0,0,0-.14c-.15-.57-.3-1.15-.44-1.73,0-.13-.07-.27-.1-.41-.11-.47-.22-.95-.32-1.42-.2-.88-.37-1.76-.53-2.66-.12-.67-.23-1.33-.33-2-.08-.52-.15-1-.21-1.57,0-.3-.09-.61-.12-.91-.08-.71-.16-1.42-.21-2.14,0-.52-.09-1-.12-1.55l0-.46c0-.61-.06-1.22-.08-1.83,0-.11,0-.23,0-.34q0-1,0-2V1508.77a72.69,72.69,0,0,1,3.48-22.23c6.55-20.51,21.92-38,42.39-49.3a112,112,0,0,1,54.13-13.66H1765c46,0,85,26.8,96.51,63A72.74,72.74,0,0,1,1865,1508.77Z" opacity=".22" transform="translate(-627.33 -758.83)"/><path fill="#1b91fb" d="M1865,1775.59V2414.3c0,46.85-45,85.19-100,85.19H1068.42c-55,0-100-38.34-100-85.19V1979.69c51.14-41.45,115-75.74,182.92-70.21,94.08,7.65,95.43,83.47,188.69,104.84C1522.42,2056.09,1715.17,1811.43,1865,1775.59Z" opacity=".08" transform="translate(-627.33 -758.83)"/><path fill="url(#g)" d="M1016.48,1446.21V2476.86a19.58,19.58,0,0,1-2.19,9h0q-.84-.46-1.68-1-2-1.14-3.92-2.38c-1-.66-2.08-1.34-3.09-2.05-.26-.17-.51-.34-.75-.53l-1.61-1.14c-.66-.49-1.32-1-2-1.49s-1.18-.93-1.76-1.4-1.15-1-1.72-1.43c-1.17-1-2.3-2-3.41-3l-1.5-1.45-1.45-1.45-.11-.12c-.51-.52-1-1.06-1.51-1.59s-1-1.08-1.46-1.63-1-1.1-1.42-1.65c-.06-.06-.11-.13-.17-.2-.41-.49-.81-1-1.21-1.49s-.92-1.17-1.37-1.76-.83-1.13-1.24-1.7-.83-1.17-1.23-1.77-.8-1.19-1.18-1.79-.66-1-1-1.57c-.12-.19-.23-.38-.34-.57-.26-.43-.52-.87-.76-1.31-.44-.76-.87-1.52-1.27-2.3-.3-.56-.59-1.13-.88-1.7l0-.09q-.45-.9-.87-1.83c-.29-.62-.57-1.24-.85-1.87s-.57-1.36-.84-2-.46-1.15-.67-1.73c0-.12-.09-.24-.14-.37-.2-.55-.39-1.09-.58-1.64-.29-.86-.57-1.72-.82-2.6-.18-.57-.34-1.14-.5-1.72a1,1,0,0,0,0-.14c-.15-.57-.3-1.15-.44-1.73,0-.13-.07-.27-.1-.41-.11-.47-.22-.95-.32-1.42-.2-.88-.37-1.76-.53-2.66-.12-.67-.23-1.33-.33-2-.08-.52-.15-1-.21-1.57,0-.3-.09-.61-.12-.91-.08-.71-.16-1.42-.21-2.14,0-.52-.09-1-.12-1.55l0-.46c0-.61-.06-1.22-.08-1.83,0-.11,0-.23,0-.34q0-1,0-2V1508.77a72.69,72.69,0,0,1,3.48-22.23c6.55-20.51,21.92-38,42.39-49.3A19.55,19.55,0,0,1,1016.48,1446.21Z" opacity=".22" transform="translate(-627.33 -758.83)"/><path fill="url(#h)" d="M1477.35,1440.39V2471c0,12.45-11.89,22.62-26.55,22.62h-5V1423.59h22.81C1474,1427.76,1477.35,1433.77,1477.35,1440.39Z" opacity=".22" transform="translate(-627.33 -758.83)"/><rect width="896.53" height="42.47" x="341.09" y="982.52" fill="#fff"/><rect width="896.53" height="42.47" x="341.09" y="897.58" fill="#fff"/><rect width="896.53" height="42.47" x="341.09" y="812.65" fill="#fff"/><rect width="896.53" height="42.47" x="341.09" y="727.71" fill="#fff"/><rect width="58.13" height="1070.07" x="760.31" y="664.76" fill="#fff"/><path fill="#1b91fb" d="M4282,3226.36a18.28,18.28,0,0,1-6.11,13.48,21.71,21.71,0,0,1-14.67,5.6H968.67c-11.42,0-20.77-8.59-20.77-19.08a18.27,18.27,0,0,1,6.1-13.47,21.71,21.71,0,0,1,14.67-5.6H4261.18C4272.61,3207.29,4282,3215.88,4282,3226.36Z" opacity=".42" transform="translate(-627.33 -758.83)"/><g><path fill="#1b91fb" d="M4131.76,2839.14l-.23,65.94-.64,184.57v.55l-.31,90.26a34.42,34.42,0,0,1-.27,4.09c-.07.53-.15,1-.25,1.58l-.15.79a31.26,31.26,0,0,1-.8,3.06h0c-.16.5-.33,1-.51,1.48-.09.24-.18.49-.28.73-.19.48-.39,1-.61,1.43-.43.95-.91,1.87-1.42,2.76q-.39.67-.81,1.32l-.42.65c-.29.42-.59.84-.9,1.25-.62.82-1.28,1.62-2,2.37-.34.37-.7.74-1.06,1.1s-.58.56-.87.83c-.65.6-1.32,1.17-2,1.72-.4.31-.81.62-1.23.92l-1.1.74a31.89,31.89,0,0,1-17.54,5.15h-.51l-78.94-.28-188.87-.65a31.9,31.9,0,0,1-15.8-4.22,32.34,32.34,0,0,1-4.82-3.38,32,32,0,0,1-11.36-24.6l1-275.39.23-65.94a32,32,0,0,1,9.44-22.62,29.33,29.33,0,0,1,2.27-2c.79-.65,1.62-1.27,2.48-1.85.39-.27.78-.52,1.19-.77l.18-.1q.61-.39,1.26-.72l.7-.37a28.56,28.56,0,0,1,2.82-1.27h0a32,32,0,0,1,11.85-2.22l20.65.07,25,.09,176.44.62,25,.09,21.14.07a32,32,0,0,1,13.17,2.87,0,0,0,0,0,0,0c.47.21.93.43,1.39.67.92.47,1.81,1,2.68,1.55a32.47,32.47,0,0,1,4.54,3.53l.29.28c.18.17.37.36.54.54a30.2,30.2,0,0,1,2.55,2.87c.25.32.49.64.73,1A32,32,0,0,1,4131.76,2839.14Z" transform="translate(-627.33 -758.83)"/><path fill="#2a4c95" d="M4130.88,3090.2l-.31,90.26a34.42,34.42,0,0,1-.27,4.09c-.07.53-.16,1.06-.25,1.58l-.15.79c-.22,1-.49,2.06-.8,3.06h0c-.16.5-.33,1-.51,1.48-.09.24-.18.49-.28.73-.19.48-.4,1-.61,1.43-.43.95-.91,1.87-1.42,2.76q-.39.67-.81,1.32l-.42.65c-.3.42-.59.84-.9,1.25-.62.82-1.28,1.62-2,2.37-.35.38-.7.75-1.06,1.1s-.58.56-.87.83c-.65.6-1.32,1.17-2,1.72-.4.31-.81.62-1.23.92l-1.1.74a31.89,31.89,0,0,1-17.54,5.15h-.51l-78.94-.27h0l.52-.56,4-4.31,3.1-3.38,49.23-53.63Z" opacity=".42" transform="translate(-627.33 -758.83)"/><path fill="#2a4c95" d="M4131.76 2839.14l-.23 65.94L3799 2903.92l.23-65.94a32.08 32.08 0 0132.19-32l268.33.93A32.08 32.08 0 014131.76 2839.14zM4131.18 3089.65l-111.74 122.18.31-89a33.56 33.56 0 0133.66-33.45z" transform="translate(-627.33 -758.83)"/><text fill="#fff" font-family="FranklinGothic-Heavy,Franklin Gothic Heavy" font-size="167.15" transform="translate(3233.98 2319.62)">13</text><rect width="25.04" height="82.47" x="4053.59" y="2766.47" fill="#2a4c95" rx="11.09" ry="11.09" transform="rotate(.2 221130.604 -177295.619)"/><rect width="25.04" height="82.47" x="3852.11" y="2765.77" fill="#2a4c95" rx="11.09" ry="11.09" transform="rotate(.2 220930.069 -177295.269)"/></g><g><path fill="url(#d)" d="M2595.39,2126.11c-1.66,4.24-3.44,8.53-5.23,13A92.06,92.06,0,0,1,2595.39,2126.11Z" transform="translate(-627.33 -758.83)"/><path fill="none" d="M2950.36,2817.61c-2.19-.51-4.43-1-6.77-1.51" transform="translate(-627.33 -758.83)"/><path fill="#2a4c95" d="M2633.1,3032.71l-12.76,19.64a47,47,0,0,1-4.81,4.17,44.08,44.08,0,0,1-57.55-4.18L2374.06,2868.4c12.33-12.25,25.58-24.65,39.69-37a831.35,831.35,0,0,1,73.63-57.41l29,38.93,120.36,161.47A44.18,44.18,0,0,1,2633.1,3032.71Z" transform="translate(-627.33 -758.83)"/><path fill="url(#b)" d="M2952.34,2813.1a48.6,48.6,0,0,1-8.74,3,52.76,52.76,0,0,1-15.58,1.43c-12.06-.47-25.26-4.5-39.24-11.64-3.37-1.71-6.77-3.62-10.24-5.73-23.17-14-48.17-35.93-73.65-64.41-22.79-25.5-46-56.23-68.53-91.11A1067.15,1067.15,0,0,1,2664,2512.22a1099.11,1099.11,0,0,1-44.63-112.35c-36.55-109.81-47.33-206.11-29.36-260.34.06-.2.06-.37.16-.47,1.8-4.43,3.56-8.72,5.23-13,6.65-13.47,15.69-23.19,27.25-28.54,30.95-14.25,74.4,5.68,121.15,50.14,44.47,42.31,92,106.86,134.46,185.33q17,31.32,32.72,65.41C3002,2596,3020.52,2781.66,2952.34,2813.1Z" transform="translate(-627.33 -758.83)"/><path fill="#1b91fb" d="M2888.78,2805.85a908.59,908.59,0,0,0-370.74,18,901.82,901.82,0,0,0-96.5,30.81c-19,7.21-37.16,14.86-54.28,22.71-7.61,3.41-15,6.89-22.19,10.36a75.64,75.64,0,0,1-76.89-6.08,76.44,76.44,0,0,1-13.84-12.57c-4.71-5.5-9.36-11.27-14-17.3-.2-.26-.37-.49-.54-.75-8.19-10.72-16.19-22.31-23.9-34.63a.41.41,0,0,0-.07-.1,566,566,0,0,1-61-133.6c-.59-2-1.21-4.06-1.8-6.1a75.44,75.44,0,0,1,35.65-86.78,933.21,933.21,0,0,0,97.18-62.32,912.22,912.22,0,0,0,277.32-329.22c10.36-20.74,19.24-40.49,26.85-58.81-15.19,46-9.78,122.24,14.51,211.32.35,1.25.7,2.51,1,3.8,5.91,21.28,12.89,43.28,20.9,65.77q5.26,14.74,11.12,29.73,11.93,30.69,26.42,62.12C2731.48,2658.68,2819.83,2770.56,2888.78,2805.85Z" transform="translate(-627.33 -758.83)"/><path fill="url(#c)" d="M2268.17,2881.69c-.84.53-1.68,1.06-2.55,1.53a78.16,78.16,0,0,1-106.06-30l-35.71-64c-20.9-37.36-7.39-85.07,30-106,.3-.14.63-.36.93-.5a553.89,553.89,0,0,0,27,70.63c20.93,45.44,46.26,85,72.57,115.76A77,77,0,0,0,2268.17,2881.69Z" transform="translate(-627.33 -758.83)"/><path fill="#2a4c95" d="M2720.23,2543.67c41.72,117.16,114.15,205,158.31,256.49-43.9-26.48-94.47-81.69-142.18-155.52A1067.15,1067.15,0,0,1,2664,2512.22a1099.11,1099.11,0,0,1-44.63-112.35c-36.55-109.81-47.33-206.11-29.36-260.34.06-.2.06-.37.16-.47,1.8-4.43,3.56-8.72,5.23-13,6.65-13.47,15.69-23.19,27.25-28.54,30.95-14.25,74.4,5.68,121.15,50.14a117.76,117.76,0,0,0-28.51,20.68C2634.1,2248.31,2679.37,2429,2720.23,2543.67Z" opacity=".66" transform="translate(-627.33 -758.83)"/><path fill="#2a4c95" d="M2793.78,2469a135.87,135.87,0,0,1-57.42,175.65A1070.55,1070.55,0,0,1,2664,2512.23a1103.14,1103.14,0,0,1-44.62-112.37A135.87,135.87,0,0,1,2793.78,2469Z" transform="translate(-627.33 -758.83)"/><path fill="url(#i)" d="M2952.34,2813.1a48.6,48.6,0,0,1-8.74,3,52.76,52.76,0,0,1-15.58,1.43c-12.06-.47-25.26-4.5-39.24-11.64-3.37-1.71-6.77-3.62-10.24-5.73-23.17-14-48.17-35.93-73.65-64.41,7.8-38.79,40.79-61.84,63.19-155.93,9.89-41.46,33.62-141,10.17-246.78q17,31.32,32.72,65.41C3002,2596,3020.52,2781.66,2952.34,2813.1Z" opacity=".56" transform="translate(-627.33 -758.83)"/><path fill="url(#j)" d="M2605.56,2354.61c-.65-1.65-1.2-2.87-1.57-3.72a2.3,2.3,0,0,1,.53-.07C2604.87,2352.07,2605.21,2353.32,2605.56,2354.61Z" transform="translate(-627.33 -758.83)"/><path fill="url(#k)" d="M2888.78,2805.85a907,907,0,0,0-365.3,16.66q-2.72.63-5.45,1.36c-11.59,3-22.9,6.16-34,9.49-21.87,6.58-42.71,13.78-62.55,21.32-19,7.21-37.16,14.86-54.28,22.71-7.61,3.41-15,6.89-22.19,10.36a75.64,75.64,0,0,1-76.89-6.08,76.44,76.44,0,0,1-13.84-12.57c-4.71-5.5-9.36-11.27-14-17.3-.2-.26-.37-.49-.54-.75,23-18.85,48.43-32.43,66.62-41.95,202.33-105.87,385.67-9,417.12-77.53,15.29-33.32-38.75-80.7-73.21-215.15a581.57,581.57,0,0,1-12.73-66.34q11.93,30.69,26.42,62.12C2731.48,2658.68,2819.83,2770.56,2888.78,2805.85Z" opacity=".56" transform="translate(-627.33 -758.83)"/><path fill="#2a4c95" d="M2563.16,2198.31c-42.69,156.53-72.8,241.74-131,287.88-88.24,70-162.3,52-209.35,136.06-28.06,50.12-28.46,102.78-28.46,102.78-.32,43.46,14.26,74.7,21.47,91.26a565,565,0,0,1-61-133.57c-.59-2-1.21-4.06-1.8-6.1a75.44,75.44,0,0,1,35.65-86.78,933.21,933.21,0,0,0,97.18-62.32,912.22,912.22,0,0,0,277.32-329.22Z" opacity=".26" transform="translate(-627.33 -758.83)"/><path fill="#1b91fb" d="M2633.1,3032.71l-12.76,19.64a47,47,0,0,1-4.81,4.17c-7.63-21.39,13.95-72.62-13.44-95.08-17.41-14.24-37.23-2.76-52.17-20.31-15.51-18.21-.6-38.15-16.21-56.09-16-18.4-41.45-8.53-50-24.71-3.77-7.17-3.31-17.74.37-27,11.05-3.33,22.37-6.52,34-9.49q2.72-.73,5.45-1.36l113.25,151.89A44.18,44.18,0,0,1,2633.1,3032.71Z" opacity=".17" transform="translate(-627.33 -758.83)"/></g><g><g opacity=".15"><path fill="#1b91fb" d="M4262.78,1748.88,4123.7,2061.17a13.48,13.48,0,0,1-20.86,5l-96.31-78.79-86.42,56.42a14.16,14.16,0,0,1-21.6-13.06l.8-9.89.11-1.27,7.06-87,1.14-14L3873,1894.45l-63.7-44.31c-9.94-6.85-6.47-22.27,5.36-24.31l62.07-10.66,9.86-1.69,179.94-30.9h0l27.66-4.75,89-15.27Z" transform="translate(-627.33 -758.83)"/><path fill="url(#l)" d="M3919.41,2024.94l-.94.58a13.49,13.49,0,0,1-19.16-4.69,13.32,13.32,0,0,1-1.62-7.68l.13-1.27a14.14,14.14,0,0,0,21.59,13.06Z" transform="translate(-627.33 -758.83)"/></g><path fill="#cb4b45" d="M4071,1944.28l-9.32-10.34,11.08-8.9A13.39,13.39,0,0,0,4071,1944.28Z" transform="translate(-627.33 -758.83)"/><path fill="url(#m)" d="M4234.44,1647.33l-.06.06L4066.5,1782.58h0l-94,75.69-11.08,8.92,9.47,10.53s0,0,0,0l7.2,8h0l-71.67,46.79-15,9.76a14.14,14.14,0,0,1-21.37-13.28l2.81-34.59,6.3-77.49-2.57-1.79-95.82-66.62a13.46,13.46,0,0,1,5.41-24.32l448.15-76.9Z" transform="translate(-627.33 -758.83)"/><path fill="url(#n)" d="M4234.43,1647.33l-.05.06-140.22,130.44-116,107.93h0l-71.65,46.79-15,9.76-.71.47a13.46,13.46,0,0,1-20.78-12.36l2.93-36,6.3-77.49,7.29-3.48Z" transform="translate(-627.33 -758.83)"/><path fill="url(#o)" d="M4234.45,1647.33l-51.33,115.23-87.79,197.07a13.47,13.47,0,0,1-20.82,4.95l-96.36-78.81h0l-7.2-8s0,0,0,0a13.46,13.46,0,0,1,1.61-19.45l94-75.69h0l167.88-135.19.06-.06Z" transform="translate(-627.33 -758.83)"/></g><g><circle cx="3251.03" cy="2967.1" r="128.8" fill="url(#p)" transform="rotate(-85.47 2526.545 2927.18)"/><path fill="#fff" d="M3301.76,2927.75l11.47.91a4.63,4.63,0,0,0,5-4.25l1.27-16.06a4.63,4.63,0,0,0-4.25-5l-15.37-1.22h0l-4.13-.33s-15.13-1.58-25.79,10.22c0,0-7.07,5.68-8.62,23.85h0l-1.5,19-19.22-1.52a4.63,4.63,0,0,0-5,4.25l-1.4,17.62a4.63,4.63,0,0,0,4.25,5l19.22,1.52-5.13,64.76a4.63,4.63,0,0,0,4.25,5l18.26,1.45a4.63,4.63,0,0,0,5-4.25l5.13-64.76,19.56,1.55a4.63,4.63,0,0,0,4.9-3.69l3.56-17.45a4.63,4.63,0,0,0-4.17-5.54l-21.73-1.72,1.5-19h0C3289,2936,3290.73,2926.68,3301.76,2927.75Z" transform="translate(-627.33 -758.83)"/><circle cx="1836.86" cy="2915.36" r="134.69" fill="url(#q)" transform="rotate(-85.47 1112.407 2875.41)"/><path fill="#fff" d="M1757.34,3003.81s33.1-149.13,157.73-164.78c0,0,12.4,50-26.91,53.18-35,2.81-38.91,7.74-37.07,15.85,1,4.33,10.91,4.45,17.44,3.13a2.49,2.49,0,0,1,2.38,4.09c-4.22,4.68-11.06,12.18-37.6,16-9.26,1.33-17.68,6.12-24.59,12.42C1798.34,2953.14,1781.92,2970.83,1757.34,3003.81Z" transform="translate(-627.33 -758.83)"/><g opacity=".65"><polygon fill="#1b91fb" points="1175.41 1982.56 1172.55 1957.56 1172.82 1957.54 1175.41 1982.56"/><path fill="#1b91fb" d="M1796.18 2667q-1.21-24.76-1-49.57h1.27q-.34 24.76.59 49.53zM1796.74 2567.81q1.47-24.76 4.26-49.43l2.06.24q-3 24.57-4.65 49.29zM1807.93 2469.25q4.12-24.47 9.57-48.7l2.8.64q-5.63 24.1-9.94 48.48zM1829.72 2372.44q6.77-23.89 14.9-47.36l3.38 1.18q-8.22 23.33-15.14 47.09zM1862.15 2278.61q9.41-23 20.12-45.41l3.75 1.8q-10.78 22.25-20.29 45.09zM1904.94 2189q12-21.78 25.2-42.82l4 2.51q-13.24 20.87-25.28 42.47zM1957.82 2104.9q14.44-20.23 30.07-39.57l4 3.22q-15.61 19.15-30.06 39.21zM2020.28 2027.61q16.76-18.36 34.61-35.69l3.84 4q-17.8 17.12-34.53 35.31zM2091.63 1958.4q18.89-16.18 38.75-31.17l3.51 4.66q-19.75 14.82-38.55 30.85zM2171 1898.51q20.74-13.73 42.32-26.14l3 5.28q-21.43 12.25-42.07 25.84zM2257.19 1848.94q22.31-11 45.28-20.62l2.44 5.85q-22.8 9.46-45 20.35zM2349 1810.58q23.52-8.13 47.5-14.8l1.73 6.24q-23.78 6.6-47.14 14.64zM2444.76 1783.88q24.32-5.23 48.92-9l1 6.48q-24.4 3.76-48.55 8.92zM2543 1768.65q24.76-2.41 49.62-3.45l.28 6.64q-24.67 1-49.26 3.39zM2642.38 1764.43q24.87.28 49.7 1.89l-.43 6.68q-24.64-1.57-49.35-1.89zM2741.61 1770.85q24.7 2.93 49.22 7.19l-1.14 6.51q-24.32-4.23-48.86-7.09zM2839.57 1788.13l12.07 3.11c4 1 8 2.2 12 3.32l23.89 6.83-1.89 6.25-23.77-6.77c-4-1.11-7.91-2.32-11.9-3.29l-11.93-3.06zM2934.69 1817.11q23.37 8.51 46.24 18.32l-2.54 5.92q-22.7-9.72-45.92-18.15zM3026 1856.37q22.24 11.13 43.81 23.55l-3.1 5.4q-21.42-12.28-43.54-23.27zM3112.16 1906.08q20.74 13.73 40.59 28.77l-3.6 4.77q-19.71-14.86-40.34-28.44zM3191.37 1966.19q18.79 16.31 36.44 33.87l-4 4.06q-17.54-17.37-36.24-33.51zM3261.82 2036.37q16.35 18.75 31.36 38.61l-4.26 3.23q-15-19.63-31.28-38.18zM3321.74 2115.7q13.56 20.85 25.64 42.61l-4.3 2.4q-12.08-21.54-25.63-42.2zM3370 2202.58q10.55 22.51 19.52 45.72l-4.17 1.62q-9-23-19.62-45.33zM3405.81 2295.26q7.32 23.75 13 48l-3.79.9q-5.76-24-13.18-47.62zM3428.41 2392q4 24.52 6.31 49.27l-3.28.32q-2.5-24.6-6.58-49zM3437.72 2490.8q.7 24.82-.18 49.64l-2.48-.08q.66-24.73-.22-49.47zM3434.28 2590q-2.38 24.7-6.24 49.22l-1.66-.25q3.64-24.49 5.83-49.16zM3418.9 2687.93q-5.29 24.23-12 48.1l-.79-.22q6.49-23.91 11.58-48.15z" transform="translate(-627.33 -758.83)"/><polygon fill="#1b91fb" points="2764.45 2024.46 2755.51 2047.98 2764.19 2024.37 2764.45 2024.46"/></g><circle cx="3016.67" cy="1885.88" r="130.22" fill="url(#r)" transform="rotate(-85.47 2292.212 1845.997)"/><line x1="2429.24" x2="2332.61" y1="1076.38" y2="1122.5" fill="none" stroke="#fff" stroke-miterlimit="10" stroke-width="7.14"/><line x1="2332.6" x2="2420.75" y1="1122.62" y2="1183.39" fill="none" stroke="#fff" stroke-miterlimit="10" stroke-width="7.14"/><circle cx="2959.93" cy="1881.3" r="30.18" fill="#fff" transform="matrix(.08 -1 1 .08 223.26 3924.47)"/><circle cx="3067.13" cy="1835.83" r="30.18" fill="#fff" transform="rotate(-85.47 2342.675 1795.938)"/><circle cx="3058.61" cy="1943.27" r="30.18" fill="#fff" transform="rotate(-85.47 2334.155 1903.377)"/><g><circle cx="3443.44" cy="2414.85" r="130.28" fill="#1b91fb" transform="rotate(-3.54 -9146.807 12186.622)"/><circle cx="3446.81" cy="2469.34" r="22.81" fill="#fff" transform="rotate(-3.54 -9143.472 12241.142)"/><path fill="#fff" d="M3505.35,2463.72,3388,2471a7.24,7.24,0,0,1-6.55-11.11l11.91-18.7a11.1,11.1,0,0,0,1.72-6.65l-2.59-41.79a53.5,53.5,0,0,1,12.23-37.69,48,48,0,0,1,33.91-17.46c27.15-1.68,50.82,20.39,52.59,49l2.59,41.79a11.1,11.1,0,0,0,2.52,6.39l14.13,17.09A7.24,7.24,0,0,1,3505.35,2463.72Z" transform="translate(-627.33 -758.83)"/><path fill="none" stroke="#28a4f7" stroke-miterlimit="10" stroke-width="2.69" d="M3329.48,2617.24" transform="translate(-627.33 -758.83)"/></g><g><circle cx="2371.41" cy="1805.14" r="130.13" fill="#1b91fb" transform="rotate(-85.47 1646.975 1765.24)"/><path fill="#fff" d="M2345.12,1865.62c52.29,4.15,84.31-36.91,87.29-74.47.1-1.22.18-2.45.21-3.66v0a57.77,57.77,0,0,0,13.61-11.51.78.78,0,0,0-.85-1.24,57.3,57.3,0,0,1-14,2.34V1777a28.72,28.72,0,0,0,12.73-12.71.78.78,0,0,0-1-1.08,57.33,57.33,0,0,1-16.68,4.58h0a28.52,28.52,0,0,0-50.79,18,29.05,29.05,0,0,0,.3,4.1,0,0,0,0,1,0,0,81,81,0,0,1-56.2-34.31s0,0,0,0a28.53,28.53,0,0,0,5.74,38.55s0,.05,0,.05a28.32,28.32,0,0,1-12.49-4.55l0,0a28.52,28.52,0,0,0,20.56,30,28.58,28.58,0,0,1-7.56.41,28.17,28.17,0,0,1-5.26-.94s0,0,0,0a28.55,28.55,0,0,0,24.9,21.8v0a57.18,57.18,0,0,1-36.21,9.33,57.82,57.82,0,0,1-6.75-.93,80.64,80.64,0,0,0,42.56,16.23Z" transform="translate(-627.33 -758.83)"/></g><g><path fill="none" stroke="#28a4f7" stroke-miterlimit="10" stroke-width="1.89" d="M1822.25,2249.66" transform="translate(-627.33 -758.83)"/><circle cx="1822.25" cy="2249.66" r="131.6" fill="url(#s)" transform="rotate(-85.47 1097.825 2209.731)"/><path fill="#fff" d="M1891.49,2237.21a37.15,37.15,0,0,1-9.2,23.65l-3.22,3.26-57.55,58.14a6.44,6.44,0,0,1-9.81-.78l-46.81-65.29-.66-.77-3.33-4.64a37.28,37.28,0,1,1,64.25-37.81,37.28,37.28,0,0,1,66.33,24.24Z" transform="translate(-627.33 -758.83)"/></g></g><g><path fill="none" stroke="#1b91fb" stroke-miterlimit="10" stroke-width="2.86" d="M895.2,2427.21" transform="translate(-627.33 -758.83)"/><path fill="url(#t)" d="M1094.12,2712.75c32.11,15.29,75.32-18.52,92.34-31.84,26.61-20.82,44.09-45.09,95.42-156.91,48.31-105.25,46.63-113.8,42.5-117.54-15.78-14.32-77.24,32.68-165.38,100.09-69.57,53.21-86.68,74.47-93.57,103.17C1056.62,2646.44,1063.81,2698.32,1094.12,2712.75Z" transform="translate(-627.33 -758.83)"/><path fill="url(#u)" d="M1028.38,2788c-2.75,8.29-8.7,15.59-16.72,21.69-.5.38-1,.76-1.52,1.13-20.35,14.64-52.85,22-81,19.13-66.54-6.68-73.13-66.44-147.06-88.77-.91-.28-1.83-.54-2.74-.79-76.68-21.69-145.9,19.68-151.66,5.38-2.28-5.68,7.24-15.7,21.08-26.28a359,359,0,0,1,43.07-27.57c19.76-10.82,46.53-25.47,77.8-35.88,37.89-12.6,82.37-19,129-4.74C972.25,2673.82,1042.59,2745.14,1028.38,2788Z" transform="translate(-627.33 -758.83)"/><path fill="#2a4c95" d="M1125.3,2823.18c7,13.59,47.57,11.55,76.38-1.91,18-8.41,20.48-16.17,32.46-22.91,51.41-28.91,133.62,42.13,139.39,34.37,6.08-8.18-64.77-114.43-150.84-101.2C1163,2740.71,1115.58,2804.32,1125.3,2823.18Z" transform="translate(-627.33 -758.83)"/><path fill="url(#v)" d="M1194.1,2885.52l-27.75,246.61A64.08,64.08,0,0,1,1160,3160c-.45.94-.92,1.86-1.42,2.78-.25.45-.5.9-.76,1.35-.51.9-1,1.78-1.61,2.65a64.45,64.45,0,0,1-24.9,22.6c-.92.48-1.85.93-2.8,1.36l-1.44.63c-1,.41-1.93.79-2.91,1.15a64.36,64.36,0,0,1-22.12,3.9H1028.1c-.86,0-1.72,0-2.58,0a64.29,64.29,0,0,1-61.72-64.24l-1.46-13L936,2885.52Z" transform="translate(-627.33 -758.83)"/><path fill="#2a4c95" d="M1194.1,2885.52l-27.75,246.61A64.08,64.08,0,0,1,1160,3160c-.45.94-.93,1.86-1.42,2.78-.25.45-.5.9-.76,1.35-.52.9-1,1.78-1.61,2.65a64.45,64.45,0,0,1-24.9,22.6c-.92.48-1.85.93-2.8,1.36l-1.44.63c-1,.4-1.93.78-2.91,1.15a64.36,64.36,0,0,1-22.12,3.9h-79c.82,0,1.63,0,2.43,0a58.14,58.14,0,0,0,21.42-4.91c22.35-9.83,37.84-33.14,47-59.33l79.61-246.61Z" transform="translate(-627.33 -758.83)"/><path fill="none" stroke="#2a4c95" stroke-miterlimit="10" stroke-width="2.06" d="M1079.56 2887.21c-8.4-37-16.82-91.24 5.22-166.42q1.71-5.83 3.58-11.41c19-56.93 72.12-122 114.46-173.88M1079.56 2887.21c-21.64-29.29-83.72-103.87-162-154.79-42.15-27.43-71.95-35.21-98.82-35.69a155.12 155.12 0 00-48 6.86" transform="translate(-627.33 -758.83)"/><path fill="none" stroke="#2a4c95" stroke-miterlimit="10" stroke-width="2.06" d="M1079.56,2885.52c33.41-45.94,68.54-73.59,92-89.22,40.37-26.94,63.52-29.91,76.86-30.2a115.86,115.86,0,0,1,48,9.61" transform="translate(-627.33 -758.83)"/></g></svg>